<svg version="1.1" xmlns="http://www.w3.org/2000/svg" viewBox="0 0 536.3088448400933 311.63344803771156" width="1072.6176896801867" height="623.2668960754231">
  <!-- svg-source:excalidraw -->
  
  <defs>
    <style class="style-fonts">
      @font-face {
        font-family: "Virgil";
        src: url("https://excalidraw.com/Virgil.woff2");
      }
      @font-face {
        font-family: "Cascadia";
        src: url("https://excalidraw.com/Cascadia.woff2");
      }
      @font-face {
        font-family: "Assistant";
        src: url("https://excalidraw.com/Assistant-Regular.woff2");
      }
    </style>
    
  </defs>
  <rect x="0" y="0" width="536.3088448400933" height="311.63344803771156" fill="#ffffff"></rect><g transform="translate(10.581424373171558 46.230939106746405) rotate(0 43.8399658203125 12.5)"><text x="0" y="0" font-family="Virgil, Segoe UI Emoji" font-size="20px" fill="#1e1e1e" text-anchor="start" style="white-space: pre;" direction="ltr" dominant-baseline="text-before-edge">words[0]</text></g><g stroke-linecap="round" transform="translate(112.55065570495333 35.80273307185507) rotate(0 20.69815466649385 21.91569317628762)"><path d="M0 0 C13.78 -0.24, 26.35 -0.2, 41.4 0 M0 0 C11.22 -0.39, 21.94 -0.57, 41.4 0 M41.4 0 C41.86 9.33, 42.17 19.54, 41.4 43.83 M41.4 0 C41.79 17.61, 41.68 34.99, 41.4 43.83 M41.4 43.83 C27.7 44.4, 13.55 42.81, 0 43.83 M41.4 43.83 C31.23 43.98, 22.29 44.13, 0 43.83 M0 43.83 C-0.71 31.44, 0.43 18.4, 0 0 M0 43.83 C0.34 29.59, 0.15 14.8, 0 0" stroke="#000000" stroke-width="4" fill="none"></path></g><g transform="translate(126.36881311802927 45.21842624814269) rotate(0 6.879997253417969 12.5)"><text x="6.879997253417969" y="0" font-family="Virgil, Segoe UI Emoji" font-size="20px" fill="#1e1e1e" text-anchor="middle" style="white-space: pre;" direction="ltr" dominant-baseline="text-before-edge">0</text></g><g stroke-linecap="round" transform="translate(153.94696503793273 35.57415641169882) rotate(0 20.69815466649385 21.91569317628762)"><path d="M0 0 C10.19 -0.22, 21.11 0.57, 41.4 0 M0 0 C15.73 -0.31, 31.07 -0.17, 41.4 0 M41.4 0 C42.41 15.08, 42.49 28.66, 41.4 43.83 M41.4 0 C41.95 10.5, 41.74 20.13, 41.4 43.83 M41.4 43.83 C28.95 42.97, 17.27 44.74, 0 43.83 M41.4 43.83 C32.95 44.45, 23.79 43.82, 0 43.83 M0 43.83 C0.53 26.09, 0.51 9.03, 0 0 M0 43.83 C-0.11 28.17, -0.24 11.6, 0 0" stroke="#000000" stroke-width="4" fill="none"></path></g><g transform="translate(167.76512245100866 44.98984958798644) rotate(0 6.879997253417969 12.5)"><text x="6.879997253417969" y="0" font-family="Virgil, Segoe UI Emoji" font-size="20px" fill="#1e1e1e" text-anchor="middle" style="white-space: pre;" direction="ltr" dominant-baseline="text-before-edge">0</text></g><g stroke-linecap="round" transform="translate(195.39907821928716 35.80273307185507) rotate(0 20.69815466649385 21.91569317628762)"><path d="M0 0 C10.71 0.56, 22.92 0.56, 41.4 0 M0 0 C10.17 -0.09, 21.33 0.45, 41.4 0 M41.4 0 C42.56 12.25, 40.94 26.02, 41.4 43.83 M41.4 0 C41.69 14.68, 41.47 30.14, 41.4 43.83 M41.4 43.83 C25.81 44.41, 10.65 42.7, 0 43.83 M41.4 43.83 C26.11 43.88, 11.44 43.64, 0 43.83 M0 43.83 C0.26 30.07, 0.56 18.4, 0 0 M0 43.83 C-0.15 26.64, -0.03 10.28, 0 0" stroke="#000000" stroke-width="4" fill="none"></path></g><g transform="translate(209.2172356323631 45.21842624814269) rotate(0 6.879997253417969 12.5)"><text x="6.879997253417969" y="0" font-family="Virgil, Segoe UI Emoji" font-size="20px" fill="#1e1e1e" text-anchor="middle" style="white-space: pre;" direction="ltr" dominant-baseline="text-before-edge">0</text></g><g stroke-linecap="round" transform="translate(236.79538755228566 35.80273307185507) rotate(0 20.69815466649385 21.91569317628762)"><path d="M0 0 C12.03 0.39, 22.02 -0.12, 41.4 0 M0 0 C9.22 0.4, 18.07 0.55, 41.4 0 M41.4 0 C40.95 16.68, 42.05 32.23, 41.4 43.83 M41.4 0 C41.37 15.04, 41.76 29.86, 41.4 43.83 M41.4 43.83 C32.18 43.07, 25.4 44.61, 0 43.83 M41.4 43.83 C25.42 43.38, 8.54 43.95, 0 43.83 M0 43.83 C0.56 34.41, 0.77 24.31, 0 0 M0 43.83 C0.02 28.33, -0.02 12.73, 0 0" stroke="#000000" stroke-width="4" fill="none"></path></g><g transform="translate(254.7835431343069 45.21842624814269) rotate(0 2.7099990844726562 12.5)"><text x="2.7099990844726562" y="0" font-family="Virgil, Segoe UI Emoji" font-size="20px" fill="#1e1e1e" text-anchor="middle" style="white-space: pre;" direction="ltr" dominant-baseline="text-before-edge">1</text></g><g stroke-linecap="round" transform="translate(278.5975430551965 35.80273307185507) rotate(0 20.69815466649385 21.91569317628762)"><path d="M0 0 C14.04 -0.12, 28.16 -0.94, 41.4 0 M0 0 C10.19 0.33, 20.81 0.36, 41.4 0 M41.4 0 C41.7 12.53, 41.7 23.93, 41.4 43.83 M41.4 0 C41.66 9.08, 40.87 18.54, 41.4 43.83 M41.4 43.83 C26.41 44.26, 11.04 43.45, 0 43.83 M41.4 43.83 C30.17 43.85, 18.63 43.84, 0 43.83 M0 43.83 C0.7 34.52, 0.43 25.05, 0 0 M0 43.83 C-0.07 33.94, -0.22 23.66, 0 0" stroke="#000000" stroke-width="4" fill="none"></path></g><g transform="translate(292.41570046827246 45.21842624814269) rotate(0 6.879997253417969 12.5)"><text x="6.879997253417969" y="0" font-family="Virgil, Segoe UI Emoji" font-size="20px" fill="#1e1e1e" text-anchor="middle" style="white-space: pre;" direction="ltr" dominant-baseline="text-before-edge">0</text></g><g stroke-linecap="round" transform="translate(319.99385238818866 35.80273307185507) rotate(0 20.69815466649385 21.91569317628762)"><path d="M0 0 C13.66 -0.84, 28.42 0.31, 41.4 0 M0 0 C15.09 0.3, 29.44 -0.51, 41.4 0 M41.4 0 C41.94 17.46, 40.65 34.2, 41.4 43.83 M41.4 0 C41.04 12.25, 41.92 24.71, 41.4 43.83 M41.4 43.83 C33.76 43.77, 23.9 44.83, 0 43.83 M41.4 43.83 C31.8 44.08, 22.54 44.23, 0 43.83 M0 43.83 C0.38 29.06, -0.89 14.87, 0 0 M0 43.83 C-0.2 29.47, 0.14 15.56, 0 0" stroke="#000000" stroke-width="4" fill="none"></path></g><g transform="translate(337.9820079702099 45.21842624814269) rotate(0 2.7099990844726562 12.5)"><text x="2.7099990844726562" y="0" font-family="Virgil, Segoe UI Emoji" font-size="20px" fill="#1e1e1e" text-anchor="middle" style="white-space: pre;" direction="ltr" dominant-baseline="text-before-edge">1</text></g><g stroke-linecap="round" transform="translate(361.39016172117897 35.80273307185507) rotate(0 20.69815466649385 21.91569317628762)"><path d="M0 0 C11.81 0.48, 25.25 0.04, 41.4 0 M0 0 C15.95 -0.53, 32.67 0.02, 41.4 0 M41.4 0 C40.65 16.05, 41.36 33.03, 41.4 43.83 M41.4 0 C41.57 9.58, 40.72 20.38, 41.4 43.83 M41.4 43.83 C26.12 44.66, 10.65 43.73, 0 43.83 M41.4 43.83 C27.02 44.22, 13.69 44.32, 0 43.83 M0 43.83 C-0.83 30.96, 0.14 18.1, 0 0 M0 43.83 C0.2 29.53, 0.2 14.39, 0 0" stroke="#000000" stroke-width="4" fill="none"></path></g><g transform="translate(379.3783173032002 45.21842624814269) rotate(0 2.7099990844726562 12.5)"><text x="2.7099990844726562" y="0" font-family="Virgil, Segoe UI Emoji" font-size="20px" fill="#1e1e1e" text-anchor="middle" style="white-space: pre;" direction="ltr" dominant-baseline="text-before-edge">1</text></g><g stroke-linecap="round" transform="translate(402.557955429162 35.80273307185507) rotate(0 20.69815466649385 21.91569317628762)"><path d="M0.27 -0.03 L41.49 0.38 L40.41 42.9 L-0.82 43.28" stroke="none" stroke-width="0" fill="#ffc9c9"></path><path d="M0 0 C9.52 -0.2, 18.78 0.53, 41.4 0 M0 0 C16.88 0.36, 33.19 0.36, 41.4 0 M41.4 0 C41.08 14.97, 40.5 27.75, 41.4 43.83 M41.4 0 C41.11 10.62, 41.88 21.04, 41.4 43.83 M41.4 43.83 C28.98 43.95, 18.48 43.23, 0 43.83 M41.4 43.83 C27.7 44.38, 13.66 44.25, 0 43.83 M0 43.83 C0.42 32, 0.5 20.06, 0 0 M0 43.83 C0.06 30.98, -0.45 17.97, 0 0" stroke="#000000" stroke-width="4" fill="none"></path></g><g transform="translate(416.37611284223794 45.21842624814269) rotate(0 6.879997253417969 12.5)"><text x="6.879997253417969" y="0" font-family="Virgil, Segoe UI Emoji" font-size="20px" fill="#1e1e1e" text-anchor="middle" style="white-space: pre;" direction="ltr" dominant-baseline="text-before-edge">0</text></g><g stroke-linecap="round" transform="translate(443.37108804729223 35.80273307185507) rotate(0 20.698154666493906 21.91569317628762)"><path d="M0 0 C14.57 0.62, 28.32 -0.27, 41.4 0 M0 0 C10.05 0.13, 19.55 -0.52, 41.4 0 M41.4 0 C40.65 11.44, 40.71 25.63, 41.4 43.83 M41.4 0 C41.5 9.75, 41.1 18.4, 41.4 43.83 M41.4 43.83 C25.75 43.03, 9.72 42.92, 0 43.83 M41.4 43.83 C26.3 44.29, 11.11 43.65, 0 43.83 M0 43.83 C0.28 30.66, -0.16 18.64, 0 0 M0 43.83 C-0.45 27.23, 0.09 11.53, 0 0" stroke="#000000" stroke-width="4" fill="none"></path></g><g transform="translate(457.18924546036806 45.21842624814269) rotate(0 6.879997253417969 12.5)"><text x="6.879997253417969" y="0" font-family="Virgil, Segoe UI Emoji" font-size="20px" fill="#1e1e1e" text-anchor="middle" style="white-space: pre;" direction="ltr" dominant-baseline="text-before-edge">0</text></g><g stroke-linecap="round" transform="translate(484.7673973802771 35.80273307185507) rotate(0 20.698154666493906 21.91569317628762)"><path d="M0 0 C12.82 -0.43, 23.05 0.8, 41.4 0 M0 0 C14.4 -0.52, 28.45 -0.16, 41.4 0 M41.4 0 C40.59 16.59, 40.36 30.69, 41.4 43.83 M41.4 0 C41.44 15.94, 41.97 31.79, 41.4 43.83 M41.4 43.83 C29.59 42.77, 17.74 43.96, 0 43.83 M41.4 43.83 C25.32 43.6, 9.53 44.08, 0 43.83 M0 43.83 C-0.18 31.7, 0.61 19.37, 0 0 M0 43.83 C0.31 31.97, 0.23 20.33, 0 0" stroke="#000000" stroke-width="4" fill="none"></path></g><g transform="translate(498.5855547933529 45.21842624814269) rotate(0 6.879997253417969 12.5)"><text x="6.879997253417969" y="0" font-family="Virgil, Segoe UI Emoji" font-size="20px" fill="#1e1e1e" text-anchor="middle" style="white-space: pre;" direction="ltr" dominant-baseline="text-before-edge">0</text></g><g transform="translate(126.36534529854578 10.339345063626752) rotate(0 12.120162963867188 11.726070996663566)"><text x="0" y="0" font-family="Virgil, Segoe UI Emoji" font-size="18.35590686106971px" fill="#000000" text-anchor="start" style="white-space: pre;" direction="ltr" dominant-baseline="text-before-edge">63</text></g><g transform="translate(171.98667802110538 10.22857666015625) rotate(0 7.541839599609375 11.726070996663566)"><text x="0" y="0" font-family="Virgil, Segoe UI Emoji" font-size="18.355906861069688px" fill="#000000" text-anchor="start" style="white-space: pre;" direction="ltr" dominant-baseline="text-before-edge">...</text></g><g transform="translate(209.45112867747264 10.22857666015625) rotate(0 4.936149597167969 11.726070996663566)"><text x="0" y="0" font-family="Virgil, Segoe UI Emoji" font-size="18.355906861069705px" fill="#000000" text-anchor="start" style="white-space: pre;" direction="ltr" dominant-baseline="text-before-edge">7</text></g><g transform="translate(251.26590336228344 10.22857666015625) rotate(0 5.8719940185546875 11.726070996663566)"><text x="0" y="0" font-family="Virgil, Segoe UI Emoji" font-size="18.355906861069695px" fill="#000000" text-anchor="start" style="white-space: pre;" direction="ltr" dominant-baseline="text-before-edge">6</text></g><g transform="translate(293.2192595883838 10.22857666015625) rotate(0 5.670143127441406 11.726070996663566)"><text x="0" y="0" font-family="Virgil, Segoe UI Emoji" font-size="18.355906861069702px" fill="#000000" text-anchor="start" style="white-space: pre;" direction="ltr" dominant-baseline="text-before-edge">5</text></g><g transform="translate(334.80545761302835 10.22857666015625) rotate(0 5.8719940185546875 11.726070996663566)"><text x="0" y="0" font-family="Virgil, Segoe UI Emoji" font-size="18.35590686106969px" fill="#000000" text-anchor="start" style="white-space: pre;" direction="ltr" dominant-baseline="text-before-edge">4</text></g><g transform="translate(376.0118782543535 10.22857666015625) rotate(0 6.2481689453125 11.726070996663566)"><text x="0" y="0" font-family="Virgil, Segoe UI Emoji" font-size="18.355906861069702px" fill="#000000" text-anchor="start" style="white-space: pre;" direction="ltr" dominant-baseline="text-before-edge">3</text></g><g transform="translate(418.3576310456714 10.22857666015625) rotate(0 6.532592773437557 11.726070996663566)"><text x="0" y="0" font-family="Virgil, Segoe UI Emoji" font-size="18.355906861069705px" fill="#000000" text-anchor="start" style="white-space: pre;" direction="ltr" dominant-baseline="text-before-edge">2</text></g><g transform="translate(456.8534724304677 10.22857666015625) rotate(0 2.486419677734375 11.726070996663566)"><text x="0" y="0" font-family="Virgil, Segoe UI Emoji" font-size="18.35590686106967px" fill="#000000" text-anchor="start" style="white-space: pre;" direction="ltr" dominant-baseline="text-before-edge">1</text></g><g transform="translate(499.9974069217783 10) rotate(0 6.3123931884765625 11.726070996663566)"><text x="0" y="0" font-family="Virgil, Segoe UI Emoji" font-size="18.355906861069702px" fill="#000000" text-anchor="start" style="white-space: pre;" direction="ltr" dominant-baseline="text-before-edge">0</text></g><g transform="translate(10.7265625 268.23026772002754) rotate(0 43.8399658203125 12.5)"><text x="0" y="0" font-family="Virgil, Segoe UI Emoji" font-size="20px" fill="#1e1e1e" text-anchor="start" style="white-space: pre;" direction="ltr" dominant-baseline="text-before-edge">words[0]</text></g><g stroke-linecap="round" transform="translate(112.69579383178166 257.8020616851363) rotate(0 20.69815466649385 21.91569317628762)"><path d="M0 0 C8.84 -0.79, 19.12 0.77, 41.4 0 M0 0 C10.43 0.5, 22.15 0.58, 41.4 0 M41.4 0 C40.56 16.45, 41.97 33.14, 41.4 43.83 M41.4 0 C41.16 15.49, 41.93 32.25, 41.4 43.83 M41.4 43.83 C29.87 43.08, 17.69 43.89, 0 43.83 M41.4 43.83 C28.79 43.5, 15.33 44.26, 0 43.83 M0 43.83 C-0.3 28.94, -0.38 15.56, 0 0 M0 43.83 C-0.22 28.6, 0.28 13.06, 0 0" stroke="#000000" stroke-width="4" fill="none"></path></g><g transform="translate(126.5139512448576 267.21775486142394) rotate(0 6.879997253417969 12.5)"><text x="6.879997253417969" y="0" font-family="Virgil, Segoe UI Emoji" font-size="20px" fill="#1e1e1e" text-anchor="middle" style="white-space: pre;" direction="ltr" dominant-baseline="text-before-edge">0</text></g><g stroke-linecap="round" transform="translate(154.09210316476106 257.5734850249801) rotate(0 20.69815466649385 21.91569317628762)"><path d="M0 0 C9.02 -0.5, 17.78 -1.15, 41.4 0 M0 0 C15.35 -0.3, 29.35 -0.54, 41.4 0 M41.4 0 C42.16 10.93, 40.66 20.31, 41.4 43.83 M41.4 0 C41.48 9.35, 41.82 19.38, 41.4 43.83 M41.4 43.83 C32.67 42.94, 23.31 44.82, 0 43.83 M41.4 43.83 C31.35 43.97, 21.28 43.87, 0 43.83 M0 43.83 C0.57 34.97, 0.82 25.64, 0 0 M0 43.83 C0.21 29.94, 0.38 16.96, 0 0" stroke="#000000" stroke-width="4" fill="none"></path></g><g transform="translate(167.910260577837 266.9891782012677) rotate(0 6.879997253417969 12.5)"><text x="6.879997253417969" y="0" font-family="Virgil, Segoe UI Emoji" font-size="20px" fill="#1e1e1e" text-anchor="middle" style="white-space: pre;" direction="ltr" dominant-baseline="text-before-edge">0</text></g><g stroke-linecap="round" transform="translate(195.5442163461155 257.8020616851363) rotate(0 20.69815466649385 21.91569317628762)"><path d="M0 0 C11.67 0.82, 22.91 1.09, 41.4 0 M0 0 C10.92 0.48, 21.96 0.47, 41.4 0 M41.4 0 C40.42 15.94, 42.16 29.93, 41.4 43.83 M41.4 0 C41.07 9.83, 41.48 20.4, 41.4 43.83 M41.4 43.83 C32.09 44.35, 24.85 44.21, 0 43.83 M41.4 43.83 C28.96 43.56, 17.29 44.01, 0 43.83 M0 43.83 C-0.08 31.16, -0.62 18.04, 0 0 M0 43.83 C-0.12 34.39, 0.09 23.87, 0 0" stroke="#000000" stroke-width="4" fill="none"></path></g><g transform="translate(209.36237375919143 267.21775486142394) rotate(0 6.879997253417969 12.5)"><text x="6.879997253417969" y="0" font-family="Virgil, Segoe UI Emoji" font-size="20px" fill="#1e1e1e" text-anchor="middle" style="white-space: pre;" direction="ltr" dominant-baseline="text-before-edge">0</text></g><g stroke-linecap="round" transform="translate(236.940525679114 257.8020616851363) rotate(0 20.69815466649385 21.91569317628762)"><path d="M0 0 C14.68 -1.09, 29.17 -0.79, 41.4 0 M0 0 C15.29 -0.57, 29.81 -0.52, 41.4 0 M41.4 0 C40.92 17.44, 41.6 33.08, 41.4 43.83 M41.4 0 C40.95 10.09, 41.89 20.19, 41.4 43.83 M41.4 43.83 C27.59 44.16, 13.69 42.89, 0 43.83 M41.4 43.83 C30.68 44.3, 19.73 43.97, 0 43.83 M0 43.83 C-0.66 29.22, 0.42 12.81, 0 0 M0 43.83 C0.06 27.02, -0.32 10.22, 0 0" stroke="#000000" stroke-width="4" fill="none"></path></g><g transform="translate(254.92868126113513 267.21775486142394) rotate(0 2.7099990844726562 12.5)"><text x="2.7099990844726562" y="0" font-family="Virgil, Segoe UI Emoji" font-size="20px" fill="#1e1e1e" text-anchor="middle" style="white-space: pre;" direction="ltr" dominant-baseline="text-before-edge">1</text></g><g stroke-linecap="round" transform="translate(278.74268118202485 257.8020616851363) rotate(0 20.69815466649385 21.91569317628762)"><path d="M0 0 C9.29 -0.84, 17.93 0.56, 41.4 0 M0 0 C9.23 0.64, 17.48 -0.18, 41.4 0 M41.4 0 C40.73 15.18, 41.56 29.55, 41.4 43.83 M41.4 0 C41.77 12.38, 41.7 23.73, 41.4 43.83 M41.4 43.83 C27.36 43.19, 14.64 43.65, 0 43.83 M41.4 43.83 C26.23 43.62, 10.84 43.47, 0 43.83 M0 43.83 C0.72 26.91, -0.65 9.16, 0 0 M0 43.83 C0.31 32.69, -0.32 21.06, 0 0" stroke="#000000" stroke-width="4" fill="none"></path></g><g transform="translate(292.5608385951007 267.21775486142394) rotate(0 6.879997253417969 12.5)"><text x="6.879997253417969" y="0" font-family="Virgil, Segoe UI Emoji" font-size="20px" fill="#1e1e1e" text-anchor="middle" style="white-space: pre;" direction="ltr" dominant-baseline="text-before-edge">0</text></g><g stroke-linecap="round" transform="translate(320.138990515017 257.8020616851363) rotate(0 20.69815466649385 21.91569317628762)"><path d="M0 0 C7.55 -0.76, 16.07 0.78, 41.4 0 M0 0 C16.62 0.14, 32.34 -0.19, 41.4 0 M41.4 0 C41.15 13.98, 40.88 26.28, 41.4 43.83 M41.4 0 C41.58 17.24, 40.95 34.59, 41.4 43.83 M41.4 43.83 C31.52 43.4, 20.26 44.4, 0 43.83 M41.4 43.83 C31.37 43.84, 20.44 44.07, 0 43.83 M0 43.83 C-0.26 27.61, -0.6 12.59, 0 0 M0 43.83 C0.42 28.22, -0.12 11.24, 0 0" stroke="#000000" stroke-width="4" fill="none"></path></g><g transform="translate(338.1271460970381 267.21775486142394) rotate(0 2.7099990844726562 12.5)"><text x="2.7099990844726562" y="0" font-family="Virgil, Segoe UI Emoji" font-size="20px" fill="#1e1e1e" text-anchor="middle" style="white-space: pre;" direction="ltr" dominant-baseline="text-before-edge">1</text></g><g stroke-linecap="round" transform="translate(361.5352998480073 257.8020616851363) rotate(0 20.69815466649385 21.91569317628762)"><path d="M0 0 C10.6 -0.4, 18.6 0.29, 41.4 0 M0 0 C12.39 0.22, 24.38 -0.01, 41.4 0 M41.4 0 C42.24 17.7, 41.16 35.34, 41.4 43.83 M41.4 0 C40.96 11.99, 41.19 23.86, 41.4 43.83 M41.4 43.83 C30.32 44.62, 19.4 44.95, 0 43.83 M41.4 43.83 C27.95 43.71, 14.09 43.8, 0 43.83 M0 43.83 C0.83 31.51, 0.51 21.3, 0 0 M0 43.83 C-0.08 26.22, -0.22 9.23, 0 0" stroke="#000000" stroke-width="4" fill="none"></path></g><g transform="translate(379.52345543002843 267.21775486142394) rotate(0 2.7099990844726562 12.5)"><text x="2.7099990844726562" y="0" font-family="Virgil, Segoe UI Emoji" font-size="20px" fill="#1e1e1e" text-anchor="middle" style="white-space: pre;" direction="ltr" dominant-baseline="text-before-edge">1</text></g><g stroke-linecap="round" transform="translate(402.93160918099034 257.8020616851363) rotate(0 20.698154666493906 21.91569317628762)"><path d="M-0.17 0.42 L42.35 0.81 L41.21 42.92 L-0.54 43.3" stroke="none" stroke-width="0" fill="#ffc9c9"></path><path d="M0 0 C11.52 -0.95, 22.38 -0.14, 41.4 0 M0 0 C13.61 -0.22, 26.37 0.54, 41.4 0 M41.4 0 C41.05 12.95, 40.96 27.4, 41.4 43.83 M41.4 0 C41.18 15.31, 41.68 30.31, 41.4 43.83 M41.4 43.83 C26.51 44.24, 11.78 44.65, 0 43.83 M41.4 43.83 C31.17 43.39, 21.54 44.09, 0 43.83 M0 43.83 C0.9 33.63, -0.87 24.19, 0 0 M0 43.83 C0.01 32.3, 0.58 21.47, 0 0" stroke="#000000" stroke-width="4" fill="none"></path></g><g transform="translate(420.9197647630116 267.21775486142394) rotate(0 2.7099990844726562 12.5)"><text x="2.7099990844726562" y="0" font-family="Virgil, Segoe UI Emoji" font-size="20px" fill="#1e1e1e" text-anchor="middle" style="white-space: pre;" direction="ltr" dominant-baseline="text-before-edge">1</text></g><g stroke-linecap="round" transform="translate(443.5162261741207 257.8020616851363) rotate(0 20.698154666493906 21.91569317628762)"><path d="M0 0 C9.06 -0.88, 17.51 1.01, 41.4 0 M0 0 C10.22 -0.26, 20.41 -0.36, 41.4 0 M41.4 0 C41.79 8.9, 42.04 17.33, 41.4 43.83 M41.4 0 C41.86 13.14, 42.02 27.19, 41.4 43.83 M41.4 43.83 C27.58 44.35, 14.52 43.58, 0 43.83 M41.4 43.83 C31.58 44.15, 22.82 44.46, 0 43.83 M0 43.83 C-0.23 32.59, 0.61 22.45, 0 0 M0 43.83 C-0.27 32.32, 0.29 20.79, 0 0" stroke="#000000" stroke-width="4" fill="none"></path></g><g transform="translate(457.3343835871965 267.21775486142394) rotate(0 6.879997253417969 12.5)"><text x="6.879997253417969" y="0" font-family="Virgil, Segoe UI Emoji" font-size="20px" fill="#1e1e1e" text-anchor="middle" style="white-space: pre;" direction="ltr" dominant-baseline="text-before-edge">0</text></g><g stroke-linecap="round" transform="translate(484.91253550710553 257.8020616851363) rotate(0 20.698154666493906 21.91569317628762)"><path d="M0 0 C8.21 0.1, 18.49 -0.03, 41.4 0 M0 0 C11.46 -0.14, 23.67 0.31, 41.4 0 M41.4 0 C41.64 13.79, 41.1 27.14, 41.4 43.83 M41.4 0 C41.72 10.23, 41.92 19.39, 41.4 43.83 M41.4 43.83 C26.61 44.2, 13.96 42.95, 0 43.83 M41.4 43.83 C27.23 43.63, 13.44 43.83, 0 43.83 M0 43.83 C-0.42 34.59, 0.63 23.49, 0 0 M0 43.83 C-0.3 28.39, -0.48 13.6, 0 0" stroke="#000000" stroke-width="4" fill="none"></path></g><g transform="translate(498.73069292018135 267.21775486142394) rotate(0 6.879997253417969 12.5)"><text x="6.879997253417969" y="0" font-family="Virgil, Segoe UI Emoji" font-size="20px" fill="#1e1e1e" text-anchor="middle" style="white-space: pre;" direction="ltr" dominant-baseline="text-before-edge">0</text></g><g transform="translate(126.5104834253741 232.338673676908) rotate(0 12.120162963867188 11.726070996663566)"><text x="0" y="0" font-family="Virgil, Segoe UI Emoji" font-size="18.35590686106971px" fill="#000000" text-anchor="start" style="white-space: pre;" direction="ltr" dominant-baseline="text-before-edge">63</text></g><g transform="translate(172.1318161479337 232.2279052734375) rotate(0 7.541839599609375 11.726070996663566)"><text x="0" y="0" font-family="Virgil, Segoe UI Emoji" font-size="18.355906861069688px" fill="#000000" text-anchor="start" style="white-space: pre;" direction="ltr" dominant-baseline="text-before-edge">...</text></g><g transform="translate(209.59626680430097 232.2279052734375) rotate(0 4.936149597167969 11.726070996663566)"><text x="0" y="0" font-family="Virgil, Segoe UI Emoji" font-size="18.355906861069705px" fill="#000000" text-anchor="start" style="white-space: pre;" direction="ltr" dominant-baseline="text-before-edge">7</text></g><g transform="translate(251.18246482895552 232.2279052734375) rotate(0 5.8719940185546875 11.726070996663566)"><text x="0" y="0" font-family="Virgil, Segoe UI Emoji" font-size="18.355906861069695px" fill="#000000" text-anchor="start" style="white-space: pre;" direction="ltr" dominant-baseline="text-before-edge">6</text></g><g transform="translate(293.36439771521214 232.2279052734375) rotate(0 5.670143127441406 11.726070996663566)"><text x="0" y="0" font-family="Virgil, Segoe UI Emoji" font-size="18.355906861069702px" fill="#000000" text-anchor="start" style="white-space: pre;" direction="ltr" dominant-baseline="text-before-edge">5</text></g><g transform="translate(334.9505957398567 232.2279052734375) rotate(0 5.8719940185546875 11.726070996663566)"><text x="0" y="0" font-family="Virgil, Segoe UI Emoji" font-size="18.35590686106969px" fill="#000000" text-anchor="start" style="white-space: pre;" direction="ltr" dominant-baseline="text-before-edge">4</text></g><g transform="translate(376.15701638118185 232.2279052734375) rotate(0 6.2481689453125 11.726070996663566)"><text x="0" y="0" font-family="Virgil, Segoe UI Emoji" font-size="18.355906861069702px" fill="#000000" text-anchor="start" style="white-space: pre;" direction="ltr" dominant-baseline="text-before-edge">3</text></g><g transform="translate(418.5027691724997 231.99932861328125) rotate(0 6.5325927734375 11.726070996663566)"><text x="0" y="0" font-family="Virgil, Segoe UI Emoji" font-size="18.355906861069705px" fill="#000000" text-anchor="start" style="white-space: pre;" direction="ltr" dominant-baseline="text-before-edge">2</text></g><g transform="translate(456.99861055729616 232.2279052734375) rotate(0 2.486419677734375 11.726070996663566)"><text x="0" y="0" font-family="Virgil, Segoe UI Emoji" font-size="18.35590686106967px" fill="#000000" text-anchor="start" style="white-space: pre;" direction="ltr" dominant-baseline="text-before-edge">1</text></g><g transform="translate(499.91402942360673 232.2279052734375) rotate(0 6.3123931884765625 11.726070996663566)"><text x="0" y="0" font-family="Virgil, Segoe UI Emoji" font-size="18.355906861069702px" fill="#000000" text-anchor="start" style="white-space: pre;" direction="ltr" dominant-baseline="text-before-edge">0</text></g><g transform="translate(10 153.51871986846504) rotate(0 5.6199951171875 12.5)"><text x="0" y="0" font-family="Virgil, Segoe UI Emoji" font-size="20px" fill="#1e1e1e" text-anchor="start" style="white-space: pre;" direction="ltr" dominant-baseline="text-before-edge">x</text></g><g stroke-linecap="round" transform="translate(111.96923133178166 143.09051383357382) rotate(0 20.69815466649385 21.91569317628762)"><path d="M0 0 C14.2 -0.19, 29.13 0.8, 41.4 0 M0 0 C9.91 -0.33, 18.4 0.21, 41.4 0 M41.4 0 C42.25 10.18, 41.55 19.88, 41.4 43.83 M41.4 0 C40.83 11.74, 41.15 23.58, 41.4 43.83 M41.4 43.83 C31.58 44.46, 20.76 44.31, 0 43.83 M41.4 43.83 C30.08 44.23, 18.83 43.66, 0 43.83 M0 43.83 C0.32 27, -0.46 10.05, 0 0 M0 43.83 C-0.01 28.87, -0.31 14.6, 0 0" stroke="#000000" stroke-width="4" fill="none"></path></g><g transform="translate(125.7873887448576 152.50620700986144) rotate(0 6.879997253417969 12.5)"><text x="6.879997253417969" y="0" font-family="Virgil, Segoe UI Emoji" font-size="20px" fill="#1e1e1e" text-anchor="middle" style="white-space: pre;" direction="ltr" dominant-baseline="text-before-edge">0</text></g><g stroke-linecap="round" transform="translate(153.36554066476106 142.86199820857382) rotate(0 20.69815466649385 21.91569317628762)"><path d="M0 0 C10.25 -0.43, 22.1 0.86, 41.4 0 M0 0 C9.57 0.37, 20.15 0.23, 41.4 0 M41.4 0 C41.1 14.29, 40.89 28.69, 41.4 43.83 M41.4 0 C41.14 11.45, 41.48 23.93, 41.4 43.83 M41.4 43.83 C26.27 44.7, 12.77 43.39, 0 43.83 M41.4 43.83 C27.79 44.1, 13.56 43.93, 0 43.83 M0 43.83 C0.4 31.3, 0.65 18.28, 0 0 M0 43.83 C0.42 34.16, -0.29 23.24, 0 0" stroke="#000000" stroke-width="4" fill="none"></path></g><g transform="translate(167.183698077837 152.27769138486144) rotate(0 6.879997253417969 12.5)"><text x="6.879997253417969" y="0" font-family="Virgil, Segoe UI Emoji" font-size="20px" fill="#1e1e1e" text-anchor="middle" style="white-space: pre;" direction="ltr" dominant-baseline="text-before-edge">0</text></g><g stroke-linecap="round" transform="translate(194.936672400803 143.09051383357382) rotate(0 20.69815466649385 21.91569317628762)"><path d="M0 0 C10.61 -1.04, 22.89 -0.97, 41.4 0 M0 0 C16.47 -0.16, 32.7 -0.28, 41.4 0 M41.4 0 C40.96 10.66, 40.83 21.48, 41.4 43.83 M41.4 0 C41.75 11.27, 41.67 21.41, 41.4 43.83 M41.4 43.83 C26.14 42.81, 9.36 44.55, 0 43.83 M41.4 43.83 C25.41 43.8, 9.37 44.1, 0 43.83 M0 43.83 C-0.82 28.89, -0.13 15.56, 0 0 M0 43.83 C0.42 26.37, -0.28 8.85, 0 0" stroke="#000000" stroke-width="4" fill="none"></path></g><g transform="translate(208.75482981387893 152.50620700986144) rotate(0 6.879997253417969 12.5)"><text x="6.879997253417969" y="0" font-family="Virgil, Segoe UI Emoji" font-size="20px" fill="#1e1e1e" text-anchor="middle" style="white-space: pre;" direction="ltr" dominant-baseline="text-before-edge">0</text></g><g stroke-linecap="round" transform="translate(236.213963179114 143.09051383357382) rotate(0 20.69815466649385 21.91569317628762)"><path d="M0 0 C9.88 0.66, 18.55 0.53, 41.4 0 M0 0 C11.98 -0.19, 24 -0.1, 41.4 0 M41.4 0 C40.76 12.25, 42.28 24.5, 41.4 43.83 M41.4 0 C41.88 17.83, 41.23 34.87, 41.4 43.83 M41.4 43.83 C33.62 44.41, 24.65 43.93, 0 43.83 M41.4 43.83 C30.27 44.2, 18.91 43.56, 0 43.83 M0 43.83 C0.95 32.03, -0.6 22.29, 0 0 M0 43.83 C0.65 32.57, 0.67 20.86, 0 0" stroke="#000000" stroke-width="4" fill="none"></path></g><g transform="translate(250.03212059218993 152.50620700986144) rotate(0 6.879997253417969 12.5)"><text x="6.879997253417969" y="0" font-family="Virgil, Segoe UI Emoji" font-size="20px" fill="#1e1e1e" text-anchor="middle" style="white-space: pre;" direction="ltr" dominant-baseline="text-before-edge">0</text></g><g stroke-linecap="round" transform="translate(278.01611868202485 142.86193717341757) rotate(0 20.69815466649385 21.91569317628762)"><path d="M0 0 C14.45 0.2, 28.72 -0.58, 41.4 0 M0 0 C10.21 -0.16, 20.5 -0.2, 41.4 0 M41.4 0 C42.57 14.82, 41.28 29.57, 41.4 43.83 M41.4 0 C40.82 17.03, 41.69 35.24, 41.4 43.83 M41.4 43.83 C27.02 43.55, 13.53 44.11, 0 43.83 M41.4 43.83 C26.28 43.69, 11.96 44.16, 0 43.83 M0 43.83 C-0.2 33.23, -0.65 25.34, 0 0 M0 43.83 C-0.61 27.37, 0.07 10.29, 0 0" stroke="#000000" stroke-width="4" fill="none"></path></g><g transform="translate(291.8342760951008 152.2776303497052) rotate(0 6.879997253417969 12.5)"><text x="6.879997253417969" y="0" font-family="Virgil, Segoe UI Emoji" font-size="20px" fill="#1e1e1e" text-anchor="middle" style="white-space: pre;" direction="ltr" dominant-baseline="text-before-edge">0</text></g><g stroke-linecap="round" transform="translate(319.412428015017 143.09051383357382) rotate(0 20.69815466649385 21.91569317628762)"><path d="M0 0 C13.06 -0.81, 26.79 -0.17, 41.4 0 M0 0 C10.66 0.6, 21.32 0.59, 41.4 0 M41.4 0 C42.3 14.48, 41.71 29.09, 41.4 43.83 M41.4 0 C41.78 10.14, 41.54 19.65, 41.4 43.83 M41.4 43.83 C30.68 44, 18.09 43.41, 0 43.83 M41.4 43.83 C28.6 43.73, 16.83 43.86, 0 43.83 M0 43.83 C1.02 35.56, 0.96 24.6, 0 0 M0 43.83 C0.22 27.53, -0.2 10.05, 0 0" stroke="#000000" stroke-width="4" fill="none"></path></g><g transform="translate(333.2305854280929 152.50620700986144) rotate(0 6.879997253417969 12.5)"><text x="6.879997253417969" y="0" font-family="Virgil, Segoe UI Emoji" font-size="20px" fill="#1e1e1e" text-anchor="middle" style="white-space: pre;" direction="ltr" dominant-baseline="text-before-edge">0</text></g><g stroke-linecap="round" transform="translate(360.8087373480073 142.86199820857382) rotate(0 20.69815466649385 21.91569317628762)"><path d="M0 0 C8.18 -0.34, 16.74 0.34, 41.4 0 M0 0 C16.7 -0.36, 33.36 0.29, 41.4 0 M41.4 0 C40.74 11.66, 42.33 22.08, 41.4 43.83 M41.4 0 C41.25 15.52, 41.53 31, 41.4 43.83 M41.4 43.83 C28.54 44.37, 16.63 42.94, 0 43.83 M41.4 43.83 C31 43.37, 21.97 44.19, 0 43.83 M0 43.83 C0.64 27.12, 0.22 9.98, 0 0 M0 43.83 C0.44 26.67, 0.41 10.27, 0 0" stroke="#000000" stroke-width="4" fill="none"></path></g><g transform="translate(374.62689476108324 152.27769138486144) rotate(0 6.879997253417969 12.5)"><text x="6.879997253417969" y="0" font-family="Virgil, Segoe UI Emoji" font-size="20px" fill="#1e1e1e" text-anchor="middle" style="white-space: pre;" direction="ltr" dominant-baseline="text-before-edge">0</text></g><g stroke-linecap="round" transform="translate(402.20504668099034 143.09051383357382) rotate(0 20.698154666493906 21.91569317628762)"><path d="M0.97 -0.48 L40.93 -0.37 L41.55 44.72 L-0.36 44.3" stroke="none" stroke-width="0" fill="#ffc9c9"></path><path d="M0 0 C11.78 0.52, 22.55 0.36, 41.4 0 M0 0 C10.79 -0.01, 21.65 -0.57, 41.4 0 M41.4 0 C42.09 16.69, 41.31 33.25, 41.4 43.83 M41.4 0 C41.51 14.27, 41.22 29.23, 41.4 43.83 M41.4 43.83 C25.75 44.16, 10.96 42.77, 0 43.83 M41.4 43.83 C32.69 44.4, 22.64 44.41, 0 43.83 M0 43.83 C0.72 28.09, -0.83 13.48, 0 0 M0 43.83 C-0.64 35.3, -0.52 26.36, 0 0" stroke="#000000" stroke-width="4" fill="none"></path></g><g transform="translate(420.1932022630116 152.50620700986144) rotate(0 2.7099990844726562 12.5)"><text x="2.7099990844726562" y="0" font-family="Virgil, Segoe UI Emoji" font-size="20px" fill="#1e1e1e" text-anchor="middle" style="white-space: pre;" direction="ltr" dominant-baseline="text-before-edge">1</text></g><g stroke-linecap="round" transform="translate(442.7896636741207 142.86193717341757) rotate(0 20.698154666493906 21.91569317628762)"><path d="M0 0 C14.47 0.69, 30.56 -0.61, 41.4 0 M0 0 C14.43 0.58, 28.25 0.41, 41.4 0 M41.4 0 C41.67 13.13, 41.93 25.76, 41.4 43.83 M41.4 0 C41.61 10.62, 40.9 19.99, 41.4 43.83 M41.4 43.83 C26.15 44.56, 13.32 44.58, 0 43.83 M41.4 43.83 C26 44.19, 10.39 44.4, 0 43.83 M0 43.83 C-0.83 32.13, -0.31 18, 0 0 M0 43.83 C0.64 27.98, -0.08 12.42, 0 0" stroke="#000000" stroke-width="4" fill="none"></path></g><g transform="translate(456.6078210871965 152.2776303497052) rotate(0 6.879997253417969 12.5)"><text x="6.879997253417969" y="0" font-family="Virgil, Segoe UI Emoji" font-size="20px" fill="#1e1e1e" text-anchor="middle" style="white-space: pre;" direction="ltr" dominant-baseline="text-before-edge">0</text></g><g stroke-linecap="round" transform="translate(484.18597300710553 143.09051383357382) rotate(0 20.698154666493906 21.91569317628762)"><path d="M0 0 C16.03 -0.81, 30.55 0.93, 41.4 0 M0 0 C15.91 -0.24, 31.76 0.06, 41.4 0 M41.4 0 C40.84 13.97, 41.52 29.55, 41.4 43.83 M41.4 0 C41.47 17.13, 40.77 34.2, 41.4 43.83 M41.4 43.83 C25.98 43.21, 9.81 44.58, 0 43.83 M41.4 43.83 C27.28 43.62, 13.72 43.5, 0 43.83 M0 43.83 C0.67 26.71, 0.41 11.98, 0 0 M0 43.83 C0.18 33.22, -0.08 21.96, 0 0" stroke="#000000" stroke-width="4" fill="none"></path></g><g transform="translate(498.00413042018135 152.50620700986144) rotate(0 6.879997253417969 12.5)"><text x="6.879997253417969" y="0" font-family="Virgil, Segoe UI Emoji" font-size="20px" fill="#1e1e1e" text-anchor="middle" style="white-space: pre;" direction="ltr" dominant-baseline="text-before-edge">0</text></g><g transform="translate(125.7839209253741 117.6271258253455) rotate(0 12.120162963867188 11.726070996663566)"><text x="0" y="0" font-family="Virgil, Segoe UI Emoji" font-size="18.35590686106971px" fill="#000000" text-anchor="start" style="white-space: pre;" direction="ltr" dominant-baseline="text-before-edge">63</text></g><g transform="translate(171.4052536479337 117.516357421875) rotate(0 7.541839599609375 11.726070996663566)"><text x="0" y="0" font-family="Virgil, Segoe UI Emoji" font-size="18.355906861069688px" fill="#000000" text-anchor="start" style="white-space: pre;" direction="ltr" dominant-baseline="text-before-edge">...</text></g><g transform="translate(208.86970430430097 117.516357421875) rotate(0 4.936149597167969 11.726070996663566)"><text x="0" y="0" font-family="Virgil, Segoe UI Emoji" font-size="18.355906861069705px" fill="#000000" text-anchor="start" style="white-space: pre;" direction="ltr" dominant-baseline="text-before-edge">7</text></g><g transform="translate(250.45590232895552 117.516357421875) rotate(0 5.8719940185546875 11.726070996663566)"><text x="0" y="0" font-family="Virgil, Segoe UI Emoji" font-size="18.355906861069695px" fill="#000000" text-anchor="start" style="white-space: pre;" direction="ltr" dominant-baseline="text-before-edge">6</text></g><g transform="translate(292.63783521521214 117.516357421875) rotate(0 5.670143127441406 11.726070996663566)"><text x="0" y="0" font-family="Virgil, Segoe UI Emoji" font-size="18.355906861069702px" fill="#000000" text-anchor="start" style="white-space: pre;" direction="ltr" dominant-baseline="text-before-edge">5</text></g><g transform="translate(334.2240332398567 117.516357421875) rotate(0 5.8719940185546875 11.726070996663566)"><text x="0" y="0" font-family="Virgil, Segoe UI Emoji" font-size="18.35590686106969px" fill="#000000" text-anchor="start" style="white-space: pre;" direction="ltr" dominant-baseline="text-before-edge">4</text></g><g transform="translate(375.43045388118185 117.28778076171875) rotate(0 6.2481689453125 11.726070996663566)"><text x="0" y="0" font-family="Virgil, Segoe UI Emoji" font-size="18.355906861069702px" fill="#000000" text-anchor="start" style="white-space: pre;" direction="ltr" dominant-baseline="text-before-edge">3</text></g><g transform="translate(417.7762066724997 117.516357421875) rotate(0 6.5325927734375 11.726070996663566)"><text x="0" y="0" font-family="Virgil, Segoe UI Emoji" font-size="18.355906861069705px" fill="#000000" text-anchor="start" style="white-space: pre;" direction="ltr" dominant-baseline="text-before-edge">2</text></g><g transform="translate(456.27204805729616 117.516357421875) rotate(0 2.486419677734375 11.726070996663566)"><text x="0" y="0" font-family="Virgil, Segoe UI Emoji" font-size="18.35590686106967px" fill="#000000" text-anchor="start" style="white-space: pre;" direction="ltr" dominant-baseline="text-before-edge">1</text></g><g transform="translate(499.18746692360673 117.516357421875) rotate(0 6.3123931884765625 11.726070996663566)"><text x="0" y="0" font-family="Virgil, Segoe UI Emoji" font-size="18.355906861069702px" fill="#000000" text-anchor="start" style="white-space: pre;" direction="ltr" dominant-baseline="text-before-edge">0</text></g><g transform="translate(301.49048199035906 92.89783974151203) rotate(0 19.209983825683594 12.5)"><text x="0" y="0" font-family="Virgil, Segoe UI Emoji" font-size="20px" fill="#1e1e1e" text-anchor="start" style="white-space: pre;" direction="ltr" dominant-baseline="text-before-edge">|(或)</text></g><g transform="translate(313.82776226379656 201.82648964385578) rotate(0 6.1699981689453125 12.5)"><text x="0" y="0" font-family="Virgil, Segoe UI Emoji" font-size="20px" fill="#1e1e1e" text-anchor="start" style="white-space: pre;" direction="ltr" dominant-baseline="text-before-edge">=</text></g></svg>