<svg version="1.1" xmlns="http://www.w3.org/2000/svg" viewBox="0 0 535.5822823400933 89.63411942443031" width="1071.1645646801867" height="179.26823884886062">
  <!-- svg-source:excalidraw -->

  <defs>
    <style class="style-fonts">
      @font-face {
      font-family: "Virgil";
      src: url("https://excalidraw.com/Virgil.woff2");
      }
      @font-face {
      font-family: "Cascadia";
      src: url("https://excalidraw.com/Cascadia.woff2");
      }
      @font-face {
      font-family: "Assistant";
      src: url("https://excalidraw.com/Assistant-Regular.woff2");
      }
    </style>

  </defs>
  <rect x="0" y="0" width="535.5822823400933" height="89.63411942443031" fill="#ffffff"></rect><g transform="translate(10 46.23093910674629) rotate(0 43.8399658203125 12.5)"><text x="0" y="0" font-family="Virgil, Segoe UI Emoji" font-size="20px" fill="#1e1e1e" text-anchor="start" style="white-space: pre;" direction="ltr" dominant-baseline="text-before-edge">words[0]</text></g><g stroke-linecap="round" transform="translate(111.96923133178188 35.80273307185507) rotate(0 20.69815466649385 21.91569317628762)"><path d="M0 0 C10.24 0.73, 20.29 -0.47, 41.4 0 M0 0 C14.82 0.34, 29.85 -0.1, 41.4 0 M41.4 0 C42.18 8.9, 41.65 19.41, 41.4 43.83 M41.4 0 C41.88 17.7, 41.87 34.34, 41.4 43.83 M41.4 43.83 C29.78 43.29, 15.78 44.02, 0 43.83 M41.4 43.83 C30.04 44.15, 19.36 44.12, 0 43.83 M0 43.83 C-0.73 27.66, 0.68 10.38, 0 0 M0 43.83 C0.26 27.38, 0.13 9.48, 0 0" stroke="#000000" stroke-width="4" fill="none"></path></g><g transform="translate(125.78738874485782 45.21842624814269) rotate(0 6.879997253417969 12.5)"><text x="6.879997253417969" y="0" font-family="Virgil, Segoe UI Emoji" font-size="20px" fill="#1e1e1e" text-anchor="middle" style="white-space: pre;" direction="ltr" dominant-baseline="text-before-edge">0</text></g><g stroke-linecap="round" transform="translate(153.36554066476128 35.57415641169882) rotate(0 20.69815466649385 21.91569317628762)"><path d="M0 0 C15.39 -0.84, 29.05 -0.27, 41.4 0 M0 0 C14.02 0.42, 28.74 0.4, 41.4 0 M41.4 0 C42.38 10.79, 42.26 21.47, 41.4 43.83 M41.4 0 C41.57 16.51, 41.35 32.82, 41.4 43.83 M41.4 43.83 C30.52 44.18, 20.71 43.11, 0 43.83 M41.4 43.83 C27.36 44.27, 13.05 43.63, 0 43.83 M0 43.83 C0.68 28.67, -0.56 15.31, 0 0 M0 43.83 C0.39 26.25, 0.45 8.58, 0 0" stroke="#000000" stroke-width="4" fill="none"></path></g><g transform="translate(167.18369807783722 44.98984958798644) rotate(0 6.879997253417969 12.5)"><text x="6.879997253417969" y="0" font-family="Virgil, Segoe UI Emoji" font-size="20px" fill="#1e1e1e" text-anchor="middle" style="white-space: pre;" direction="ltr" dominant-baseline="text-before-edge">0</text></g><g stroke-linecap="round" transform="translate(194.81765384611572 35.80273307185507) rotate(0 20.69815466649385 21.91569317628762)"><path d="M0 0 C8.89 -0.29, 16.41 -0.74, 41.4 0 M0 0 C14.93 -0.08, 30.68 0.35, 41.4 0 M41.4 0 C42.27 15.85, 40.84 30.24, 41.4 43.83 M41.4 0 C41.07 15.8, 41.44 31.97, 41.4 43.83 M41.4 43.83 C28.24 43.44, 14.55 44.42, 0 43.83 M41.4 43.83 C26.18 44.13, 10.42 44.15, 0 43.83 M0 43.83 C1.07 34.16, -0.86 25.43, 0 0 M0 43.83 C-0.08 31.68, -0.44 19.59, 0 0" stroke="#000000" stroke-width="4" fill="none"></path></g><g transform="translate(208.63581125919166 45.21842624814269) rotate(0 6.879997253417969 12.5)"><text x="6.879997253417969" y="0" font-family="Virgil, Segoe UI Emoji" font-size="20px" fill="#1e1e1e" text-anchor="middle" style="white-space: pre;" direction="ltr" dominant-baseline="text-before-edge">0</text></g><g stroke-linecap="round" transform="translate(236.21396317911422 35.80273307185507) rotate(0 20.69815466649385 21.91569317628762)"><path d="M0 0 C11.57 -0.07, 22.41 -0.47, 41.4 0 M0 0 C13.06 0.22, 26.07 0.15, 41.4 0 M41.4 0 C41.9 15.98, 42.16 32.36, 41.4 43.83 M41.4 0 C41.61 10.95, 41.07 21.77, 41.4 43.83 M41.4 43.83 C30.63 44.96, 17.88 44.26, 0 43.83 M41.4 43.83 C25.1 43.82, 9.7 44.5, 0 43.83 M0 43.83 C-0.03 31.97, -0.45 18.61, 0 0 M0 43.83 C0.19 31.01, -0.24 18.59, 0 0" stroke="#000000" stroke-width="4" fill="none"></path></g><g transform="translate(254.20211876113547 45.21842624814269) rotate(0 2.7099990844726562 12.5)"><text x="2.7099990844726562" y="0" font-family="Virgil, Segoe UI Emoji" font-size="20px" fill="#1e1e1e" text-anchor="middle" style="white-space: pre;" direction="ltr" dominant-baseline="text-before-edge">1</text></g><g stroke-linecap="round" transform="translate(278.0161186820251 35.80273307185507) rotate(0 20.69815466649385 21.91569317628762)"><path d="M0 0 C11.54 0.47, 23.84 0.58, 41.4 0 M0 0 C16.29 -0.51, 31.85 0.19, 41.4 0 M41.4 0 C41.05 11.57, 41.25 22.87, 41.4 43.83 M41.4 0 C41.11 14.96, 41.6 29.84, 41.4 43.83 M41.4 43.83 C25.77 43.32, 9.33 43.07, 0 43.83 M41.4 43.83 C30.47 43.56, 20.01 43.92, 0 43.83 M0 43.83 C0.05 26.42, 0.09 10.17, 0 0 M0 43.83 C0 31.64, 0.52 18.66, 0 0" stroke="#000000" stroke-width="4" fill="none"></path></g><g transform="translate(291.834276095101 45.21842624814269) rotate(0 6.879997253417969 12.5)"><text x="6.879997253417969" y="0" font-family="Virgil, Segoe UI Emoji" font-size="20px" fill="#1e1e1e" text-anchor="middle" style="white-space: pre;" direction="ltr" dominant-baseline="text-before-edge">0</text></g><g stroke-linecap="round" transform="translate(319.4124280150172 35.80273307185507) rotate(0 20.69815466649385 21.91569317628762)"><path d="M0 0 C14.66 0.69, 28.33 0.65, 41.4 0 M0 0 C9.14 0.32, 18.48 -0.41, 41.4 0 M41.4 0 C41.68 13.6, 41.8 28.53, 41.4 43.83 M41.4 0 C42.05 14.75, 41.7 30.49, 41.4 43.83 M41.4 43.83 C30.96 43.83, 22.25 43.56, 0 43.83 M41.4 43.83 C33.31 43.46, 24.47 43.74, 0 43.83 M0 43.83 C-0.11 32.16, 0.57 21.57, 0 0 M0 43.83 C0.05 26.87, -0.01 10.05, 0 0" stroke="#000000" stroke-width="4" fill="none"></path></g><g transform="translate(337.40058359703846 45.21842624814269) rotate(0 2.7099990844726562 12.5)"><text x="2.7099990844726562" y="0" font-family="Virgil, Segoe UI Emoji" font-size="20px" fill="#1e1e1e" text-anchor="middle" style="white-space: pre;" direction="ltr" dominant-baseline="text-before-edge">1</text></g><g stroke-linecap="round" transform="translate(360.8087373480075 35.80273307185507) rotate(0 20.69815466649385 21.91569317628762)"><path d="M0 0 C14.9 -0.13, 31.96 -0.58, 41.4 0 M0 0 C16.38 -0.06, 32.62 0.29, 41.4 0 M41.4 0 C41.93 10.46, 42.21 20.4, 41.4 43.83 M41.4 0 C41.17 11.07, 41.05 21.09, 41.4 43.83 M41.4 43.83 C27.33 44.55, 14.92 44.67, 0 43.83 M41.4 43.83 C31.44 43.79, 22.05 43.75, 0 43.83 M0 43.83 C0.71 34.47, -0.04 24.05, 0 0 M0 43.83 C-0.33 32.04, -0.31 20, 0 0" stroke="#000000" stroke-width="4" fill="none"></path></g><g transform="translate(378.7968929300288 45.21842624814269) rotate(0 2.7099990844726562 12.5)"><text x="2.7099990844726562" y="0" font-family="Virgil, Segoe UI Emoji" font-size="20px" fill="#1e1e1e" text-anchor="middle" style="white-space: pre;" direction="ltr" dominant-baseline="text-before-edge">1</text></g><g stroke-linecap="round" transform="translate(401.97653105599056 35.80273307185507) rotate(0 20.698154666493906 21.91569317628762)"><path d="M0 0 C13.46 -0.37, 24.53 0.37, 41.4 0 M0 0 C10.57 0.17, 21.81 0.14, 41.4 0 M41.4 0 C40.98 16.71, 42.39 32.32, 41.4 43.83 M41.4 0 C41.3 17.43, 41.17 33.41, 41.4 43.83 M41.4 43.83 C25.26 44.22, 10.34 43.51, 0 43.83 M41.4 43.83 C28.84 44.08, 16.82 44.22, 0 43.83 M0 43.83 C-0.31 27.75, -0.33 10.53, 0 0 M0 43.83 C0.35 29.85, 0.05 16.83, 0 0" stroke="#000000" stroke-width="4" fill="none"></path></g><g transform="translate(415.7946884690665 45.21842624814269) rotate(0 6.879997253417912 12.5)"><text x="6.879997253417969" y="0" font-family="Virgil, Segoe UI Emoji" font-size="20px" fill="#1e1e1e" text-anchor="middle" style="white-space: pre;" direction="ltr" dominant-baseline="text-before-edge">0</text></g><g stroke-linecap="round" transform="translate(442.7896636741207 35.80273307185507) rotate(0 20.698154666493906 21.91569317628762)"><path d="M0 0 C10.17 0.24, 21.42 -0.84, 41.4 0 M0 0 C14.79 0.26, 29.32 -0.38, 41.4 0 M41.4 0 C42.44 13.53, 41.21 28.86, 41.4 43.83 M41.4 0 C41.74 17.34, 41.8 34.6, 41.4 43.83 M41.4 43.83 C28.05 43.89, 14.68 43.03, 0 43.83 M41.4 43.83 C27.05 44.05, 12.18 43.86, 0 43.83 M0 43.83 C0.2 28.87, -0.16 15.38, 0 0 M0 43.83 C0.33 32.82, 0.01 21.41, 0 0" stroke="#000000" stroke-width="4" fill="none"></path></g><g transform="translate(456.6078210871965 45.21842624814269) rotate(0 6.879997253417969 12.5)"><text x="6.879997253417969" y="0" font-family="Virgil, Segoe UI Emoji" font-size="20px" fill="#1e1e1e" text-anchor="middle" style="white-space: pre;" direction="ltr" dominant-baseline="text-before-edge">0</text></g><g stroke-linecap="round" transform="translate(484.18597300710553 35.80273307185507) rotate(0 20.698154666493906 21.91569317628762)"><path d="M0 0 C14.12 -0.07, 27.71 0.91, 41.4 0 M0 0 C15.48 0.54, 30.41 0.55, 41.4 0 M41.4 0 C42.3 9.47, 40.37 19.89, 41.4 43.83 M41.4 0 C41.69 12.06, 41.34 24.19, 41.4 43.83 M41.4 43.83 C28.85 43.38, 16.03 44.42, 0 43.83 M41.4 43.83 C28.78 43.62, 15.6 43.84, 0 43.83 M0 43.83 C-0.44 32.73, 1 22.49, 0 0 M0 43.83 C-0.22 30.61, 0.16 18.24, 0 0" stroke="#000000" stroke-width="4" fill="none"></path></g><g transform="translate(498.00413042018135 45.21842624814269) rotate(0 6.879997253417969 12.5)"><text x="6.879997253417969" y="0" font-family="Virgil, Segoe UI Emoji" font-size="20px" fill="#1e1e1e" text-anchor="middle" style="white-space: pre;" direction="ltr" dominant-baseline="text-before-edge">0</text></g><g transform="translate(125.78392092537433 10.339345063626752) rotate(0 12.120162963867188 11.726070996663566)"><text x="0" y="0" font-family="Virgil, Segoe UI Emoji" font-size="18.35590686106971px" fill="#000000" text-anchor="start" style="white-space: pre;" direction="ltr" dominant-baseline="text-before-edge">63</text></g><g transform="translate(171.40525364793393 10.22857666015625) rotate(0 7.541839599609375 11.726070996663566)"><text x="0" y="0" font-family="Virgil, Segoe UI Emoji" font-size="18.355906861069688px" fill="#000000" text-anchor="start" style="white-space: pre;" direction="ltr" dominant-baseline="text-before-edge">...</text></g><g transform="translate(208.8697043043012 10.22857666015625) rotate(0 4.936149597167969 11.726070996663566)"><text x="0" y="0" font-family="Virgil, Segoe UI Emoji" font-size="18.355906861069705px" fill="#000000" text-anchor="start" style="white-space: pre;" direction="ltr" dominant-baseline="text-before-edge">7</text></g><g transform="translate(250.684478989112 10.22857666015625) rotate(0 5.8719940185546875 11.726070996663566)"><text x="0" y="0" font-family="Virgil, Segoe UI Emoji" font-size="18.355906861069695px" fill="#000000" text-anchor="start" style="white-space: pre;" direction="ltr" dominant-baseline="text-before-edge">6</text></g><g transform="translate(292.63783521521236 10.22857666015625) rotate(0 5.670143127441406 11.726070996663566)"><text x="0" y="0" font-family="Virgil, Segoe UI Emoji" font-size="18.355906861069702px" fill="#000000" text-anchor="start" style="white-space: pre;" direction="ltr" dominant-baseline="text-before-edge">5</text></g><g transform="translate(334.2240332398569 10.22857666015625) rotate(0 5.8719940185546875 11.726070996663566)"><text x="0" y="0" font-family="Virgil, Segoe UI Emoji" font-size="18.35590686106969px" fill="#000000" text-anchor="start" style="white-space: pre;" direction="ltr" dominant-baseline="text-before-edge">4</text></g><g transform="translate(375.4304538811821 10.22857666015625) rotate(0 6.2481689453125 11.726070996663566)"><text x="0" y="0" font-family="Virgil, Segoe UI Emoji" font-size="18.355906861069702px" fill="#000000" text-anchor="start" style="white-space: pre;" direction="ltr" dominant-baseline="text-before-edge">3</text></g><g transform="translate(417.77620667249994 10.22857666015625) rotate(0 6.5325927734375 11.726070996663566)"><text x="0" y="0" font-family="Virgil, Segoe UI Emoji" font-size="18.355906861069705px" fill="#000000" text-anchor="start" style="white-space: pre;" direction="ltr" dominant-baseline="text-before-edge">2</text></g><g transform="translate(456.27204805729616 10.22857666015625) rotate(0 2.486419677734375 11.726070996663566)"><text x="0" y="0" font-family="Virgil, Segoe UI Emoji" font-size="18.35590686106967px" fill="#000000" text-anchor="start" style="white-space: pre;" direction="ltr" dominant-baseline="text-before-edge">1</text></g><g transform="translate(499.41598254860673 10) rotate(0 6.3123931884765625 11.726070996663566)"><text x="0" y="0" font-family="Virgil, Segoe UI Emoji" font-size="18.355906861069702px" fill="#000000" text-anchor="start" style="white-space: pre;" direction="ltr" dominant-baseline="text-before-edge">0</text></g></svg>