<svg version="1.1" xmlns="http://www.w3.org/2000/svg" viewBox="0 0 536.3088448400933 311.63344803771145" width="1072.6176896801867" height="623.2668960754229">
  <!-- svg-source:excalidraw -->
  
  <defs>
    <style class="style-fonts">
      @font-face {
        font-family: "Virgil";
        src: url("https://excalidraw.com/Virgil.woff2");
      }
      @font-face {
        font-family: "Cascadia";
        src: url("https://excalidraw.com/Cascadia.woff2");
      }
      @font-face {
        font-family: "Assistant";
        src: url("https://excalidraw.com/Assistant-Regular.woff2");
      }
    </style>
    
  </defs>
  <rect x="0" y="0" width="536.3088448400933" height="311.63344803771145" fill="#ffffff"></rect><g transform="translate(10.581424373171558 46.23093910674629) rotate(0 43.8399658203125 12.5)"><text x="0" y="0" font-family="Virgil, Segoe UI Emoji" font-size="20px" fill="#1e1e1e" text-anchor="start" style="white-space: pre;" direction="ltr" dominant-baseline="text-before-edge">words[0]</text></g><g stroke-linecap="round" transform="translate(112.55065570495344 35.80273307185507) rotate(0 20.69815466649385 21.91569317628762)"><path d="M0 0 C10.24 0.73, 20.29 -0.47, 41.4 0 M0 0 C14.82 0.34, 29.85 -0.1, 41.4 0 M41.4 0 C42.18 8.9, 41.65 19.41, 41.4 43.83 M41.4 0 C41.88 17.7, 41.87 34.34, 41.4 43.83 M41.4 43.83 C29.78 43.29, 15.78 44.02, 0 43.83 M41.4 43.83 C30.04 44.15, 19.36 44.12, 0 43.83 M0 43.83 C-0.73 27.66, 0.68 10.38, 0 0 M0 43.83 C0.26 27.38, 0.13 9.48, 0 0" stroke="#000000" stroke-width="4" fill="none"></path></g><g transform="translate(126.36881311802938 45.21842624814269) rotate(0 6.879997253417969 12.5)"><text x="6.879997253417969" y="0" font-family="Virgil, Segoe UI Emoji" font-size="20px" fill="#1e1e1e" text-anchor="middle" style="white-space: pre;" direction="ltr" dominant-baseline="text-before-edge">0</text></g><g stroke-linecap="round" transform="translate(153.94696503793284 35.57415641169882) rotate(0 20.69815466649385 21.91569317628762)"><path d="M0 0 C15.39 -0.84, 29.05 -0.27, 41.4 0 M0 0 C14.02 0.42, 28.74 0.4, 41.4 0 M41.4 0 C42.38 10.79, 42.26 21.47, 41.4 43.83 M41.4 0 C41.57 16.51, 41.35 32.82, 41.4 43.83 M41.4 43.83 C30.52 44.18, 20.71 43.11, 0 43.83 M41.4 43.83 C27.36 44.27, 13.05 43.63, 0 43.83 M0 43.83 C0.68 28.67, -0.56 15.31, 0 0 M0 43.83 C0.39 26.25, 0.45 8.58, 0 0" stroke="#000000" stroke-width="4" fill="none"></path></g><g transform="translate(167.76512245100878 44.98984958798644) rotate(0 6.879997253417969 12.5)"><text x="6.879997253417969" y="0" font-family="Virgil, Segoe UI Emoji" font-size="20px" fill="#1e1e1e" text-anchor="middle" style="white-space: pre;" direction="ltr" dominant-baseline="text-before-edge">0</text></g><g stroke-linecap="round" transform="translate(195.39907821928728 35.80273307185507) rotate(0 20.69815466649385 21.91569317628762)"><path d="M0 0 C8.89 -0.29, 16.41 -0.74, 41.4 0 M0 0 C14.93 -0.08, 30.68 0.35, 41.4 0 M41.4 0 C42.27 15.85, 40.84 30.24, 41.4 43.83 M41.4 0 C41.07 15.8, 41.44 31.97, 41.4 43.83 M41.4 43.83 C28.24 43.44, 14.55 44.42, 0 43.83 M41.4 43.83 C26.18 44.13, 10.42 44.15, 0 43.83 M0 43.83 C1.07 34.16, -0.86 25.43, 0 0 M0 43.83 C-0.08 31.68, -0.44 19.59, 0 0" stroke="#000000" stroke-width="4" fill="none"></path></g><g transform="translate(209.2172356323632 45.21842624814269) rotate(0 6.879997253417969 12.5)"><text x="6.879997253417969" y="0" font-family="Virgil, Segoe UI Emoji" font-size="20px" fill="#1e1e1e" text-anchor="middle" style="white-space: pre;" direction="ltr" dominant-baseline="text-before-edge">0</text></g><g stroke-linecap="round" transform="translate(236.79538755228577 35.80273307185507) rotate(0 20.69815466649385 21.91569317628762)"><path d="M0 0 C11.57 -0.07, 22.41 -0.47, 41.4 0 M0 0 C13.06 0.22, 26.07 0.15, 41.4 0 M41.4 0 C41.9 15.98, 42.16 32.36, 41.4 43.83 M41.4 0 C41.61 10.95, 41.07 21.77, 41.4 43.83 M41.4 43.83 C30.63 44.96, 17.88 44.26, 0 43.83 M41.4 43.83 C25.1 43.82, 9.7 44.5, 0 43.83 M0 43.83 C-0.03 31.97, -0.45 18.61, 0 0 M0 43.83 C0.19 31.01, -0.24 18.59, 0 0" stroke="#000000" stroke-width="4" fill="none"></path></g><g transform="translate(254.78354313430702 45.21842624814269) rotate(0 2.7099990844726562 12.5)"><text x="2.7099990844726562" y="0" font-family="Virgil, Segoe UI Emoji" font-size="20px" fill="#1e1e1e" text-anchor="middle" style="white-space: pre;" direction="ltr" dominant-baseline="text-before-edge">1</text></g><g stroke-linecap="round" transform="translate(278.59754305519664 35.80273307185507) rotate(0 20.69815466649385 21.91569317628762)"><path d="M0 0 C11.54 0.47, 23.84 0.58, 41.4 0 M0 0 C16.29 -0.51, 31.85 0.19, 41.4 0 M41.4 0 C41.05 11.57, 41.25 22.87, 41.4 43.83 M41.4 0 C41.11 14.96, 41.6 29.84, 41.4 43.83 M41.4 43.83 C25.77 43.32, 9.33 43.07, 0 43.83 M41.4 43.83 C30.47 43.56, 20.01 43.92, 0 43.83 M0 43.83 C0.05 26.42, 0.09 10.17, 0 0 M0 43.83 C0 31.64, 0.52 18.66, 0 0" stroke="#000000" stroke-width="4" fill="none"></path></g><g transform="translate(292.4157004682726 45.21842624814269) rotate(0 6.879997253417969 12.5)"><text x="6.879997253417969" y="0" font-family="Virgil, Segoe UI Emoji" font-size="20px" fill="#1e1e1e" text-anchor="middle" style="white-space: pre;" direction="ltr" dominant-baseline="text-before-edge">0</text></g><g stroke-linecap="round" transform="translate(319.99385238818877 35.80273307185507) rotate(0 20.69815466649385 21.91569317628762)"><path d="M0 0 C14.66 0.69, 28.33 0.65, 41.4 0 M0 0 C9.14 0.32, 18.48 -0.41, 41.4 0 M41.4 0 C41.68 13.6, 41.8 28.53, 41.4 43.83 M41.4 0 C42.05 14.75, 41.7 30.49, 41.4 43.83 M41.4 43.83 C30.96 43.83, 22.25 43.56, 0 43.83 M41.4 43.83 C33.31 43.46, 24.47 43.74, 0 43.83 M0 43.83 C-0.11 32.16, 0.57 21.57, 0 0 M0 43.83 C0.05 26.87, -0.01 10.05, 0 0" stroke="#000000" stroke-width="4" fill="none"></path></g><g transform="translate(337.98200797021 45.21842624814269) rotate(0 2.7099990844726562 12.5)"><text x="2.7099990844726562" y="0" font-family="Virgil, Segoe UI Emoji" font-size="20px" fill="#1e1e1e" text-anchor="middle" style="white-space: pre;" direction="ltr" dominant-baseline="text-before-edge">1</text></g><g stroke-linecap="round" transform="translate(361.3901617211791 35.80273307185507) rotate(0 20.69815466649385 21.91569317628762)"><path d="M0 0 C14.9 -0.13, 31.96 -0.58, 41.4 0 M0 0 C16.38 -0.06, 32.62 0.29, 41.4 0 M41.4 0 C41.93 10.46, 42.21 20.4, 41.4 43.83 M41.4 0 C41.17 11.07, 41.05 21.09, 41.4 43.83 M41.4 43.83 C27.33 44.55, 14.92 44.67, 0 43.83 M41.4 43.83 C31.44 43.79, 22.05 43.75, 0 43.83 M0 43.83 C0.71 34.47, -0.04 24.05, 0 0 M0 43.83 C-0.33 32.04, -0.31 20, 0 0" stroke="#000000" stroke-width="4" fill="none"></path></g><g transform="translate(379.37831730320033 45.21842624814269) rotate(0 2.7099990844726562 12.5)"><text x="2.7099990844726562" y="0" font-family="Virgil, Segoe UI Emoji" font-size="20px" fill="#1e1e1e" text-anchor="middle" style="white-space: pre;" direction="ltr" dominant-baseline="text-before-edge">1</text></g><g stroke-linecap="round" transform="translate(402.5579554291621 35.80273307185507) rotate(0 20.698154666493906 21.91569317628762)"><path d="M0.61 -0.07 L41.35 -0.92 L40.94 43.11 L0.31 44.09" stroke="none" stroke-width="0" fill="#ffc9c9"></path><path d="M0 0 C13.46 -0.37, 24.53 0.37, 41.4 0 M0 0 C10.57 0.17, 21.81 0.14, 41.4 0 M41.4 0 C40.98 16.71, 42.39 32.32, 41.4 43.83 M41.4 0 C41.3 17.43, 41.17 33.41, 41.4 43.83 M41.4 43.83 C25.26 44.22, 10.34 43.51, 0 43.83 M41.4 43.83 C28.84 44.08, 16.82 44.22, 0 43.83 M0 43.83 C-0.31 27.75, -0.33 10.53, 0 0 M0 43.83 C0.35 29.85, 0.05 16.83, 0 0" stroke="#000000" stroke-width="4" fill="none"></path></g><g transform="translate(420.54611101118337 45.21842624814269) rotate(0 2.7099990844725994 12.5)"><text x="2.7099990844726562" y="0" font-family="Virgil, Segoe UI Emoji" font-size="20px" fill="#1e1e1e" text-anchor="middle" style="white-space: pre;" direction="ltr" dominant-baseline="text-before-edge">1</text></g><g stroke-linecap="round" transform="translate(443.37108804729223 35.80273307185507) rotate(0 20.698154666493906 21.91569317628762)"><path d="M0 0 C10.17 0.24, 21.42 -0.84, 41.4 0 M0 0 C14.79 0.26, 29.32 -0.38, 41.4 0 M41.4 0 C42.44 13.53, 41.21 28.86, 41.4 43.83 M41.4 0 C41.74 17.34, 41.8 34.6, 41.4 43.83 M41.4 43.83 C28.05 43.89, 14.68 43.03, 0 43.83 M41.4 43.83 C27.05 44.05, 12.18 43.86, 0 43.83 M0 43.83 C0.2 28.87, -0.16 15.38, 0 0 M0 43.83 C0.33 32.82, 0.01 21.41, 0 0" stroke="#000000" stroke-width="4" fill="none"></path></g><g transform="translate(457.18924546036806 45.21842624814269) rotate(0 6.879997253417969 12.5)"><text x="6.879997253417969" y="0" font-family="Virgil, Segoe UI Emoji" font-size="20px" fill="#1e1e1e" text-anchor="middle" style="white-space: pre;" direction="ltr" dominant-baseline="text-before-edge">0</text></g><g stroke-linecap="round" transform="translate(484.7673973802771 35.80273307185507) rotate(0 20.698154666493906 21.91569317628762)"><path d="M0 0 C14.12 -0.07, 27.71 0.91, 41.4 0 M0 0 C15.48 0.54, 30.41 0.55, 41.4 0 M41.4 0 C42.3 9.47, 40.37 19.89, 41.4 43.83 M41.4 0 C41.69 12.06, 41.34 24.19, 41.4 43.83 M41.4 43.83 C28.85 43.38, 16.03 44.42, 0 43.83 M41.4 43.83 C28.78 43.62, 15.6 43.84, 0 43.83 M0 43.83 C-0.44 32.73, 1 22.49, 0 0 M0 43.83 C-0.22 30.61, 0.16 18.24, 0 0" stroke="#000000" stroke-width="4" fill="none"></path></g><g transform="translate(498.5855547933529 45.21842624814269) rotate(0 6.879997253417969 12.5)"><text x="6.879997253417969" y="0" font-family="Virgil, Segoe UI Emoji" font-size="20px" fill="#1e1e1e" text-anchor="middle" style="white-space: pre;" direction="ltr" dominant-baseline="text-before-edge">0</text></g><g transform="translate(126.36534529854589 10.339345063626752) rotate(0 12.120162963867188 11.726070996663566)"><text x="0" y="0" font-family="Virgil, Segoe UI Emoji" font-size="18.35590686106971px" fill="#000000" text-anchor="start" style="white-space: pre;" direction="ltr" dominant-baseline="text-before-edge">63</text></g><g transform="translate(171.9866780211055 10.22857666015625) rotate(0 7.541839599609375 11.726070996663566)"><text x="0" y="0" font-family="Virgil, Segoe UI Emoji" font-size="18.355906861069688px" fill="#000000" text-anchor="start" style="white-space: pre;" direction="ltr" dominant-baseline="text-before-edge">...</text></g><g transform="translate(209.45112867747275 10.22857666015625) rotate(0 4.936149597167969 11.726070996663566)"><text x="0" y="0" font-family="Virgil, Segoe UI Emoji" font-size="18.355906861069705px" fill="#000000" text-anchor="start" style="white-space: pre;" direction="ltr" dominant-baseline="text-before-edge">7</text></g><g transform="translate(251.26590336228355 10.22857666015625) rotate(0 5.8719940185546875 11.726070996663566)"><text x="0" y="0" font-family="Virgil, Segoe UI Emoji" font-size="18.355906861069695px" fill="#000000" text-anchor="start" style="white-space: pre;" direction="ltr" dominant-baseline="text-before-edge">6</text></g><g transform="translate(293.2192595883839 10.22857666015625) rotate(0 5.670143127441406 11.726070996663566)"><text x="0" y="0" font-family="Virgil, Segoe UI Emoji" font-size="18.355906861069702px" fill="#000000" text-anchor="start" style="white-space: pre;" direction="ltr" dominant-baseline="text-before-edge">5</text></g><g transform="translate(334.80545761302847 10.22857666015625) rotate(0 5.8719940185546875 11.726070996663566)"><text x="0" y="0" font-family="Virgil, Segoe UI Emoji" font-size="18.35590686106969px" fill="#000000" text-anchor="start" style="white-space: pre;" direction="ltr" dominant-baseline="text-before-edge">4</text></g><g transform="translate(376.01187825435363 10.22857666015625) rotate(0 6.2481689453125 11.726070996663566)"><text x="0" y="0" font-family="Virgil, Segoe UI Emoji" font-size="18.355906861069702px" fill="#000000" text-anchor="start" style="white-space: pre;" direction="ltr" dominant-baseline="text-before-edge">3</text></g><g transform="translate(418.3576310456715 10.22857666015625) rotate(0 6.5325927734375 11.726070996663566)"><text x="0" y="0" font-family="Virgil, Segoe UI Emoji" font-size="18.355906861069705px" fill="#000000" text-anchor="start" style="white-space: pre;" direction="ltr" dominant-baseline="text-before-edge">2</text></g><g transform="translate(456.8534724304677 10.22857666015625) rotate(0 2.486419677734375 11.726070996663566)"><text x="0" y="0" font-family="Virgil, Segoe UI Emoji" font-size="18.35590686106967px" fill="#000000" text-anchor="start" style="white-space: pre;" direction="ltr" dominant-baseline="text-before-edge">1</text></g><g transform="translate(499.9974069217783 10) rotate(0 6.3123931884765625 11.726070996663566)"><text x="0" y="0" font-family="Virgil, Segoe UI Emoji" font-size="18.355906861069702px" fill="#000000" text-anchor="start" style="white-space: pre;" direction="ltr" dominant-baseline="text-before-edge">0</text></g><g transform="translate(10.7265625 268.23026772002765) rotate(0 43.8399658203125 12.5)"><text x="0" y="0" font-family="Virgil, Segoe UI Emoji" font-size="20px" fill="#1e1e1e" text-anchor="start" style="white-space: pre;" direction="ltr" dominant-baseline="text-before-edge">words[0]</text></g><g stroke-linecap="round" transform="translate(112.69579383178166 257.8020616851362) rotate(0 20.69815466649385 21.91569317628762)"><path d="M0 0 C10.24 -0.73, 21.29 -0.34, 41.4 0 M0 0 C16.09 -0.16, 31.91 -0.17, 41.4 0 M41.4 0 C41.2 11.28, 40.93 21.48, 41.4 43.83 M41.4 0 C41.51 16.83, 41.3 34.23, 41.4 43.83 M41.4 43.83 C27.81 44.43, 13.81 43.03, 0 43.83 M41.4 43.83 C26.12 43.84, 10.1 43.47, 0 43.83 M0 43.83 C-0.33 27.92, -0.03 10.82, 0 0 M0 43.83 C-0.51 32.51, -0.4 20.97, 0 0" stroke="#000000" stroke-width="4" fill="none"></path></g><g transform="translate(126.5139512448576 267.21775486142394) rotate(0 6.879997253417969 12.5)"><text x="6.879997253417969" y="0" font-family="Virgil, Segoe UI Emoji" font-size="20px" fill="#1e1e1e" text-anchor="middle" style="white-space: pre;" direction="ltr" dominant-baseline="text-before-edge">0</text></g><g stroke-linecap="round" transform="translate(154.09210316476106 257.57348502497996) rotate(0 20.69815466649385 21.91569317628762)"><path d="M0 0 C10.37 0.8, 19.16 0.48, 41.4 0 M0 0 C10.93 0.13, 22.15 -0.05, 41.4 0 M41.4 0 C42.23 15.84, 41.22 30.42, 41.4 43.83 M41.4 0 C41.45 9.23, 41.53 18.26, 41.4 43.83 M41.4 43.83 C27.65 43.78, 11.69 44.29, 0 43.83 M41.4 43.83 C28.18 43.48, 14.17 43.52, 0 43.83 M0 43.83 C-0.37 27.21, 0.71 8.35, 0 0 M0 43.83 C0.35 29.4, -0.36 15.61, 0 0" stroke="#000000" stroke-width="4" fill="none"></path></g><g transform="translate(167.910260577837 266.9891782012677) rotate(0 6.879997253417969 12.5)"><text x="6.879997253417969" y="0" font-family="Virgil, Segoe UI Emoji" font-size="20px" fill="#1e1e1e" text-anchor="middle" style="white-space: pre;" direction="ltr" dominant-baseline="text-before-edge">0</text></g><g stroke-linecap="round" transform="translate(195.5442163461155 257.8020616851362) rotate(0 20.69815466649385 21.91569317628762)"><path d="M0 0 C15.18 0.21, 30.63 -0.62, 41.4 0 M0 0 C13.21 -0.2, 25.89 0.52, 41.4 0 M41.4 0 C40.46 15.37, 40.66 31.96, 41.4 43.83 M41.4 0 C41.75 14.19, 41.05 28.94, 41.4 43.83 M41.4 43.83 C28.72 43.76, 15.01 44.82, 0 43.83 M41.4 43.83 C31.59 43.67, 21.19 43.54, 0 43.83 M0 43.83 C0.03 26.85, -0.21 11.29, 0 0 M0 43.83 C0.69 34.99, 0.55 25.73, 0 0" stroke="#000000" stroke-width="4" fill="none"></path></g><g transform="translate(209.36237375919143 267.21775486142394) rotate(0 6.879997253417969 12.5)"><text x="6.879997253417969" y="0" font-family="Virgil, Segoe UI Emoji" font-size="20px" fill="#1e1e1e" text-anchor="middle" style="white-space: pre;" direction="ltr" dominant-baseline="text-before-edge">0</text></g><g stroke-linecap="round" transform="translate(236.940525679114 257.8020616851362) rotate(0 20.69815466649385 21.91569317628762)"><path d="M0 0 C13.8 -0.39, 27.09 0.59, 41.4 0 M0 0 C10.67 -0.23, 20.72 -0.66, 41.4 0 M41.4 0 C41.49 11.63, 41.35 22.82, 41.4 43.83 M41.4 0 C41.27 12, 41.52 24.84, 41.4 43.83 M41.4 43.83 C29.3 44.13, 17.79 44.98, 0 43.83 M41.4 43.83 C29.94 44.09, 17.36 43.84, 0 43.83 M0 43.83 C-0.96 31.79, -0.63 22.58, 0 0 M0 43.83 C0.07 30.49, -0.04 16.63, 0 0" stroke="#000000" stroke-width="4" fill="none"></path></g><g transform="translate(254.92868126113524 267.21775486142394) rotate(0 2.7099990844726562 12.5)"><text x="2.7099990844726562" y="0" font-family="Virgil, Segoe UI Emoji" font-size="20px" fill="#1e1e1e" text-anchor="middle" style="white-space: pre;" direction="ltr" dominant-baseline="text-before-edge">1</text></g><g stroke-linecap="round" transform="translate(278.74268118202485 257.8020616851362) rotate(0 20.69815466649385 21.91569317628762)"><path d="M0 0 C9.87 -0.22, 21.68 0.51, 41.4 0 M0 0 C11.92 -0.17, 24.45 0.32, 41.4 0 M41.4 0 C41.24 14.32, 42.19 30.57, 41.4 43.83 M41.4 0 C41.44 9.93, 41.96 20.05, 41.4 43.83 M41.4 43.83 C28.33 44.77, 15.15 44.8, 0 43.83 M41.4 43.83 C25.93 43.84, 11.17 43.38, 0 43.83 M0 43.83 C0.26 35.45, -0.46 26.14, 0 0 M0 43.83 C0.27 27.87, -0.54 12.29, 0 0" stroke="#000000" stroke-width="4" fill="none"></path></g><g transform="translate(292.5608385951008 267.21775486142394) rotate(0 6.879997253417969 12.5)"><text x="6.879997253417969" y="0" font-family="Virgil, Segoe UI Emoji" font-size="20px" fill="#1e1e1e" text-anchor="middle" style="white-space: pre;" direction="ltr" dominant-baseline="text-before-edge">0</text></g><g stroke-linecap="round" transform="translate(320.138990515017 257.8020616851362) rotate(0 20.69815466649385 21.91569317628762)"><path d="M0 0 C11.84 -0.17, 22.88 -0.58, 41.4 0 M0 0 C9.65 0, 19.09 -0.15, 41.4 0 M41.4 0 C40.88 9.84, 41.86 18.19, 41.4 43.83 M41.4 0 C41.64 10.98, 42.07 22.32, 41.4 43.83 M41.4 43.83 C26.58 43.3, 10.59 43.53, 0 43.83 M41.4 43.83 C28.78 43.31, 17.58 43.69, 0 43.83 M0 43.83 C0.78 27.89, 0.39 12.15, 0 0 M0 43.83 C0.35 29.94, 0.68 16.97, 0 0" stroke="#000000" stroke-width="4" fill="none"></path></g><g transform="translate(338.12714609703823 267.21775486142394) rotate(0 2.7099990844726562 12.5)"><text x="2.7099990844726562" y="0" font-family="Virgil, Segoe UI Emoji" font-size="20px" fill="#1e1e1e" text-anchor="middle" style="white-space: pre;" direction="ltr" dominant-baseline="text-before-edge">1</text></g><g stroke-linecap="round" transform="translate(361.5352998480073 257.8020616851362) rotate(0 20.69815466649385 21.91569317628762)"><path d="M0 0 C11.52 0.4, 24.75 0.57, 41.4 0 M0 0 C12.43 0.42, 25.84 -0.3, 41.4 0 M41.4 0 C41.02 16.83, 40.95 32.07, 41.4 43.83 M41.4 0 C41.98 11.03, 41.99 22.79, 41.4 43.83 M41.4 43.83 C31.77 44.23, 21.3 42.8, 0 43.83 M41.4 43.83 C32 43.55, 22.14 44.18, 0 43.83 M0 43.83 C0 28.73, 0.81 15.88, 0 0 M0 43.83 C-0.16 35.19, -0.52 26.48, 0 0" stroke="#000000" stroke-width="4" fill="none"></path></g><g transform="translate(379.52345543002855 267.21775486142394) rotate(0 2.7099990844726562 12.5)"><text x="2.7099990844726562" y="0" font-family="Virgil, Segoe UI Emoji" font-size="20px" fill="#1e1e1e" text-anchor="middle" style="white-space: pre;" direction="ltr" dominant-baseline="text-before-edge">1</text></g><g stroke-linecap="round" transform="translate(402.93160918099034 257.8020616851362) rotate(0 20.698154666493906 21.91569317628762)"><path d="M-0.64 -0.54 L42.22 -0.89 L40.77 42.87 L-0.81 43.95" stroke="none" stroke-width="0" fill="#ffc9c9"></path><path d="M0 0 C13.81 0.41, 27.22 -1, 41.4 0 M0 0 C15.92 0.29, 31.09 -0.08, 41.4 0 M41.4 0 C40.84 17.85, 41.14 34.5, 41.4 43.83 M41.4 0 C41.22 11.5, 41.33 22.79, 41.4 43.83 M41.4 43.83 C26.29 44.61, 12.6 44.33, 0 43.83 M41.4 43.83 C31.59 44.09, 21.88 43.99, 0 43.83 M0 43.83 C-1.17 35.93, -0.3 26.25, 0 0 M0 43.83 C0.07 28.97, 0.23 13.91, 0 0" stroke="#000000" stroke-width="4" fill="none"></path></g><g transform="translate(416.7497665940663 267.21775486142394) rotate(0 6.879997253418026 12.5)"><text x="6.879997253417969" y="0" font-family="Virgil, Segoe UI Emoji" font-size="20px" fill="#1e1e1e" text-anchor="middle" style="white-space: pre;" direction="ltr" dominant-baseline="text-before-edge">0</text></g><g stroke-linecap="round" transform="translate(443.5162261741207 257.8020616851362) rotate(0 20.698154666493906 21.91569317628762)"><path d="M0 0 C15.28 0.32, 28.33 0.83, 41.4 0 M0 0 C14.07 -0.16, 27.35 -0.13, 41.4 0 M41.4 0 C40.97 18.16, 42.05 34.1, 41.4 43.83 M41.4 0 C41.54 13.46, 40.83 27.57, 41.4 43.83 M41.4 43.83 C24.35 44.42, 9.15 44.19, 0 43.83 M41.4 43.83 C27.42 44.28, 14.57 43.35, 0 43.83 M0 43.83 C0.47 25.94, 0.75 9.18, 0 0 M0 43.83 C-0.36 28.38, 0.37 13.02, 0 0" stroke="#000000" stroke-width="4" fill="none"></path></g><g transform="translate(457.3343835871965 267.21775486142394) rotate(0 6.879997253417969 12.5)"><text x="6.879997253417969" y="0" font-family="Virgil, Segoe UI Emoji" font-size="20px" fill="#1e1e1e" text-anchor="middle" style="white-space: pre;" direction="ltr" dominant-baseline="text-before-edge">0</text></g><g stroke-linecap="round" transform="translate(484.91253550710553 257.8020616851362) rotate(0 20.698154666493906 21.91569317628762)"><path d="M0 0 C13.26 -0.34, 25.49 0.72, 41.4 0 M0 0 C10.77 0.02, 20.95 -0.11, 41.4 0 M41.4 0 C41.73 16.05, 41.48 33.53, 41.4 43.83 M41.4 0 C41.68 8.96, 41.54 17.5, 41.4 43.83 M41.4 43.83 C27.37 44.52, 12.88 42.89, 0 43.83 M41.4 43.83 C25.85 43.58, 9.41 43.85, 0 43.83 M0 43.83 C0.3 33.66, 0.35 22.48, 0 0 M0 43.83 C-0.49 32.57, -0.59 22.32, 0 0" stroke="#000000" stroke-width="4" fill="none"></path></g><g transform="translate(498.73069292018135 267.21775486142394) rotate(0 6.879997253417969 12.5)"><text x="6.879997253417969" y="0" font-family="Virgil, Segoe UI Emoji" font-size="20px" fill="#1e1e1e" text-anchor="middle" style="white-space: pre;" direction="ltr" dominant-baseline="text-before-edge">0</text></g><g transform="translate(126.5104834253741 232.3386736769079) rotate(0 12.120162963867188 11.726070996663566)"><text x="0" y="0" font-family="Virgil, Segoe UI Emoji" font-size="18.35590686106971px" fill="#000000" text-anchor="start" style="white-space: pre;" direction="ltr" dominant-baseline="text-before-edge">63</text></g><g transform="translate(172.1318161479337 232.2279052734374) rotate(0 7.541839599609375 11.726070996663566)"><text x="0" y="0" font-family="Virgil, Segoe UI Emoji" font-size="18.355906861069688px" fill="#000000" text-anchor="start" style="white-space: pre;" direction="ltr" dominant-baseline="text-before-edge">...</text></g><g transform="translate(209.59626680430097 232.2279052734374) rotate(0 4.936149597167969 11.726070996663566)"><text x="0" y="0" font-family="Virgil, Segoe UI Emoji" font-size="18.355906861069705px" fill="#000000" text-anchor="start" style="white-space: pre;" direction="ltr" dominant-baseline="text-before-edge">7</text></g><g transform="translate(251.18246482895552 232.2279052734374) rotate(0 5.8719940185546875 11.726070996663566)"><text x="0" y="0" font-family="Virgil, Segoe UI Emoji" font-size="18.355906861069695px" fill="#000000" text-anchor="start" style="white-space: pre;" direction="ltr" dominant-baseline="text-before-edge">6</text></g><g transform="translate(293.36439771521214 232.2279052734374) rotate(0 5.670143127441406 11.726070996663566)"><text x="0" y="0" font-family="Virgil, Segoe UI Emoji" font-size="18.355906861069702px" fill="#000000" text-anchor="start" style="white-space: pre;" direction="ltr" dominant-baseline="text-before-edge">5</text></g><g transform="translate(334.9505957398567 232.2279052734374) rotate(0 5.8719940185546875 11.726070996663566)"><text x="0" y="0" font-family="Virgil, Segoe UI Emoji" font-size="18.35590686106969px" fill="#000000" text-anchor="start" style="white-space: pre;" direction="ltr" dominant-baseline="text-before-edge">4</text></g><g transform="translate(376.15701638118185 232.2279052734374) rotate(0 6.2481689453125 11.726070996663566)"><text x="0" y="0" font-family="Virgil, Segoe UI Emoji" font-size="18.355906861069702px" fill="#000000" text-anchor="start" style="white-space: pre;" direction="ltr" dominant-baseline="text-before-edge">3</text></g><g transform="translate(418.5027691724997 231.99932861328114) rotate(0 6.5325927734375 11.726070996663566)"><text x="0" y="0" font-family="Virgil, Segoe UI Emoji" font-size="18.355906861069705px" fill="#000000" text-anchor="start" style="white-space: pre;" direction="ltr" dominant-baseline="text-before-edge">2</text></g><g transform="translate(456.99861055729616 232.2279052734374) rotate(0 2.486419677734375 11.726070996663566)"><text x="0" y="0" font-family="Virgil, Segoe UI Emoji" font-size="18.35590686106967px" fill="#000000" text-anchor="start" style="white-space: pre;" direction="ltr" dominant-baseline="text-before-edge">1</text></g><g transform="translate(499.91402942360673 232.2279052734374) rotate(0 6.3123931884765625 11.726070996663566)"><text x="0" y="0" font-family="Virgil, Segoe UI Emoji" font-size="18.355906861069702px" fill="#000000" text-anchor="start" style="white-space: pre;" direction="ltr" dominant-baseline="text-before-edge">0</text></g><g transform="translate(10 153.51871986846515) rotate(0 5.6199951171875 12.5)"><text x="0" y="0" font-family="Virgil, Segoe UI Emoji" font-size="20px" fill="#1e1e1e" text-anchor="start" style="white-space: pre;" direction="ltr" dominant-baseline="text-before-edge">x</text></g><g stroke-linecap="round" transform="translate(111.96923133178166 142.8619982085737) rotate(0 20.69815466649385 21.91569317628762)"><path d="M0 0 C15.91 0.13, 30.78 0.55, 41.4 0 M0 0 C12.8 -0.67, 25.79 -0.23, 41.4 0 M41.4 0 C42.23 13.43, 41.96 27.31, 41.4 43.83 M41.4 0 C41.67 14.96, 40.94 30.34, 41.4 43.83 M41.4 43.83 C31.39 44.71, 23.17 43.2, 0 43.83 M41.4 43.83 C26.98 44.38, 12.19 44.27, 0 43.83 M0 43.83 C-1.08 30.6, 0.33 17.72, 0 0 M0 43.83 C0.14 26.43, -0.21 10.34, 0 0" stroke="#000000" stroke-width="4" fill="none"></path></g><g transform="translate(129.9573869138029 152.27769138486144) rotate(0 2.7099990844726562 12.5)"><text x="2.7099990844726562" y="0" font-family="Virgil, Segoe UI Emoji" font-size="20px" fill="#1e1e1e" text-anchor="middle" style="white-space: pre;" direction="ltr" dominant-baseline="text-before-edge">1</text></g><g stroke-linecap="round" transform="translate(153.36554066476106 142.63342154841746) rotate(0 20.69815466649385 21.91569317628762)"><path d="M0 0 C13.39 -1.12, 27.53 0.14, 41.4 0 M0 0 C8.41 0.24, 16.41 0.39, 41.4 0 M41.4 0 C42.01 11.92, 40.96 25.93, 41.4 43.83 M41.4 0 C40.85 9.32, 41.62 18.04, 41.4 43.83 M41.4 43.83 C26.52 43.07, 10.98 44.37, 0 43.83 M41.4 43.83 C25.25 44.28, 9.34 43.5, 0 43.83 M0 43.83 C0.77 31.04, 0.38 17.36, 0 0 M0 43.83 C0.19 34.27, 0.27 24.73, 0 0" stroke="#000000" stroke-width="4" fill="none"></path></g><g transform="translate(171.3536962467823 152.0491147247052) rotate(0 2.7099990844726562 12.5)"><text x="2.7099990844726562" y="0" font-family="Virgil, Segoe UI Emoji" font-size="20px" fill="#1e1e1e" text-anchor="middle" style="white-space: pre;" direction="ltr" dominant-baseline="text-before-edge">1</text></g><g stroke-linecap="round" transform="translate(194.936672400803 143.0905138335737) rotate(0 20.69815466649385 21.91569317628762)"><path d="M0 0 C7.37 0.88, 16.58 0.04, 41.4 0 M0 0 C14.18 0.08, 28.6 0.11, 41.4 0 M41.4 0 C40.39 9.73, 40.32 19.89, 41.4 43.83 M41.4 0 C41.92 13.63, 41.16 27.66, 41.4 43.83 M41.4 43.83 C32.35 44.66, 22.17 44.02, 0 43.83 M41.4 43.83 C26.5 43.87, 11.78 44.07, 0 43.83 M0 43.83 C-0.97 27.33, 0.8 11.35, 0 0 M0 43.83 C-0.22 32.34, -0.39 20.73, 0 0" stroke="#000000" stroke-width="4" fill="none"></path></g><g transform="translate(212.92482798282424 152.50620700986144) rotate(0 2.7099990844726562 12.5)"><text x="2.7099990844726562" y="0" font-family="Virgil, Segoe UI Emoji" font-size="20px" fill="#1e1e1e" text-anchor="middle" style="white-space: pre;" direction="ltr" dominant-baseline="text-before-edge">1</text></g><g stroke-linecap="round" transform="translate(236.213963179114 143.0905138335737) rotate(0 20.69815466649385 21.91569317628762)"><path d="M0 0 C16.74 -0.66, 33.33 -0.16, 41.4 0 M0 0 C14.02 -0.38, 29.09 -0.55, 41.4 0 M41.4 0 C41.31 11.14, 40.24 21.57, 41.4 43.83 M41.4 0 C40.93 12.88, 41.58 25.75, 41.4 43.83 M41.4 43.83 C26.76 44.39, 9.95 43.93, 0 43.83 M41.4 43.83 C27.44 44.25, 13.05 43.58, 0 43.83 M0 43.83 C-0.61 31.59, -0.96 18.14, 0 0 M0 43.83 C0.36 31.81, 0.46 19.94, 0 0" stroke="#000000" stroke-width="4" fill="none"></path></g><g transform="translate(254.20211876113524 152.50620700986144) rotate(0 2.7099990844726562 12.5)"><text x="2.7099990844726562" y="0" font-family="Virgil, Segoe UI Emoji" font-size="20px" fill="#1e1e1e" text-anchor="middle" style="white-space: pre;" direction="ltr" dominant-baseline="text-before-edge">1</text></g><g stroke-linecap="round" transform="translate(278.01611868202485 142.86193717341746) rotate(0 20.69815466649385 21.91569317628762)"><path d="M0 0 C10.25 0.22, 20.08 -0.61, 41.4 0 M0 0 C9.88 -0.3, 19.97 0.25, 41.4 0 M41.4 0 C41.07 15.53, 41.76 32.03, 41.4 43.83 M41.4 0 C41.89 15.55, 41.57 30.72, 41.4 43.83 M41.4 43.83 C27.14 44.37, 12.83 44.59, 0 43.83 M41.4 43.83 C26.96 44.11, 12.78 43.45, 0 43.83 M0 43.83 C-0.12 27.97, -0.65 13.72, 0 0 M0 43.83 C0.11 31.73, -0.05 20.09, 0 0" stroke="#000000" stroke-width="4" fill="none"></path></g><g transform="translate(296.0042742640461 152.2776303497052) rotate(0 2.7099990844726562 12.5)"><text x="2.7099990844726562" y="0" font-family="Virgil, Segoe UI Emoji" font-size="20px" fill="#1e1e1e" text-anchor="middle" style="white-space: pre;" direction="ltr" dominant-baseline="text-before-edge">1</text></g><g stroke-linecap="round" transform="translate(319.412428015017 143.0905138335737) rotate(0 20.69815466649385 21.91569317628762)"><path d="M0 0 C12.66 0.95, 25.5 -0.49, 41.4 0 M0 0 C8.81 -0.5, 17.27 -0.08, 41.4 0 M41.4 0 C41.99 10.42, 42.43 20.12, 41.4 43.83 M41.4 0 C41.68 15.66, 41.45 32.49, 41.4 43.83 M41.4 43.83 C27.29 44.59, 11.36 43.89, 0 43.83 M41.4 43.83 C25.47 43.36, 8.93 43.6, 0 43.83 M0 43.83 C-0.11 33.85, -0.12 23.04, 0 0 M0 43.83 C-0.28 32.68, 0.44 21.89, 0 0" stroke="#000000" stroke-width="4" fill="none"></path></g><g transform="translate(337.40058359703823 152.50620700986144) rotate(0 2.7099990844726562 12.5)"><text x="2.7099990844726562" y="0" font-family="Virgil, Segoe UI Emoji" font-size="20px" fill="#1e1e1e" text-anchor="middle" style="white-space: pre;" direction="ltr" dominant-baseline="text-before-edge">1</text></g><g stroke-linecap="round" transform="translate(360.8087373480073 142.6333605132612) rotate(0 20.69815466649385 21.91569317628762)"><path d="M0 0 C14.86 -0.68, 31.75 0.85, 41.4 0 M0 0 C8.1 0.31, 16.69 0.26, 41.4 0 M41.4 0 C42.27 16.27, 42.2 33.03, 41.4 43.83 M41.4 0 C41.68 9.45, 41.79 18.26, 41.4 43.83 M41.4 43.83 C27.37 44.15, 11.13 44.3, 0 43.83 M41.4 43.83 C31.85 43.36, 23.11 43.62, 0 43.83 M0 43.83 C-0.41 27.9, 0.05 11.1, 0 0 M0 43.83 C-0.42 30.87, -0.22 18.69, 0 0" stroke="#000000" stroke-width="4" fill="none"></path></g><g transform="translate(378.79689293002855 152.04905368954894) rotate(0 2.7099990844726562 12.5)"><text x="2.7099990844726562" y="0" font-family="Virgil, Segoe UI Emoji" font-size="20px" fill="#1e1e1e" text-anchor="middle" style="white-space: pre;" direction="ltr" dominant-baseline="text-before-edge">1</text></g><g stroke-linecap="round" transform="translate(402.20504668099034 143.0905138335737) rotate(0 20.698154666493906 21.91569317628762)"><path d="M-0.1 0.67 L42.21 0.65 L41.37 43.32 L-0.3 43.57" stroke="none" stroke-width="0" fill="#ffc9c9"></path><path d="M0 0 C8.11 0.58, 18 -0.93, 41.4 0 M0 0 C15.13 0.36, 29.89 0.24, 41.4 0 M41.4 0 C40.59 13.4, 41.99 27.15, 41.4 43.83 M41.4 0 C41.86 16.54, 41.51 34.39, 41.4 43.83 M41.4 43.83 C26.81 43.71, 13.45 43.36, 0 43.83 M41.4 43.83 C32.69 43.62, 23.57 43.53, 0 43.83 M0 43.83 C-0.14 30.78, 0.45 15.38, 0 0 M0 43.83 C0.17 34.84, -0.37 25.33, 0 0" stroke="#000000" stroke-width="4" fill="none"></path></g><g transform="translate(416.0232040940663 152.50620700986144) rotate(0 6.879997253418026 12.5)"><text x="6.879997253417969" y="0" font-family="Virgil, Segoe UI Emoji" font-size="20px" fill="#1e1e1e" text-anchor="middle" style="white-space: pre;" direction="ltr" dominant-baseline="text-before-edge">0</text></g><g stroke-linecap="round" transform="translate(442.7896636741207 142.86193717341746) rotate(0 20.698154666493906 21.91569317628762)"><path d="M0 0 C16.01 -0.43, 31.35 0.87, 41.4 0 M0 0 C16.19 0.16, 32.61 -0.61, 41.4 0 M41.4 0 C42.37 14.28, 41.97 27.69, 41.4 43.83 M41.4 0 C41.55 9.15, 41.62 18.34, 41.4 43.83 M41.4 43.83 C29.09 44.19, 18.13 44.39, 0 43.83 M41.4 43.83 C30.3 43.73, 18.77 43.66, 0 43.83 M0 43.83 C-1 26.43, -0.36 9.38, 0 0 M0 43.83 C0.11 29.23, 0.57 14.3, 0 0" stroke="#000000" stroke-width="4" fill="none"></path></g><g transform="translate(460.7778192561418 152.2776303497052) rotate(0 2.7099990844726562 12.5)"><text x="2.7099990844726562" y="0" font-family="Virgil, Segoe UI Emoji" font-size="20px" fill="#1e1e1e" text-anchor="middle" style="white-space: pre;" direction="ltr" dominant-baseline="text-before-edge">1</text></g><g stroke-linecap="round" transform="translate(484.18597300710553 143.0905138335737) rotate(0 20.698154666493906 21.91569317628762)"><path d="M0 0 C10.86 0.54, 20.59 -0.11, 41.4 0 M0 0 C14.98 0.43, 30.14 0.63, 41.4 0 M41.4 0 C40.64 16.32, 42.41 33.16, 41.4 43.83 M41.4 0 C41.39 11.2, 41.22 22.28, 41.4 43.83 M41.4 43.83 C26.71 44.5, 12.14 44.17, 0 43.83 M41.4 43.83 C29.53 44.02, 16.49 43.35, 0 43.83 M0 43.83 C0.46 30.01, -0.18 17.59, 0 0 M0 43.83 C-0.19 27.51, -0.33 11.57, 0 0" stroke="#000000" stroke-width="4" fill="none"></path></g><g transform="translate(502.17412858912667 152.50620700986144) rotate(0 2.7099990844726562 12.5)"><text x="2.7099990844726562" y="0" font-family="Virgil, Segoe UI Emoji" font-size="20px" fill="#1e1e1e" text-anchor="middle" style="white-space: pre;" direction="ltr" dominant-baseline="text-before-edge">1</text></g><g transform="translate(125.7839209253741 117.62712582534539) rotate(0 12.120162963867188 11.726070996663566)"><text x="0" y="0" font-family="Virgil, Segoe UI Emoji" font-size="18.35590686106971px" fill="#000000" text-anchor="start" style="white-space: pre;" direction="ltr" dominant-baseline="text-before-edge">63</text></g><g transform="translate(171.4052536479337 117.51635742187489) rotate(0 7.541839599609375 11.726070996663566)"><text x="0" y="0" font-family="Virgil, Segoe UI Emoji" font-size="18.355906861069688px" fill="#000000" text-anchor="start" style="white-space: pre;" direction="ltr" dominant-baseline="text-before-edge">...</text></g><g transform="translate(208.86970430430097 117.51635742187489) rotate(0 4.936149597167969 11.726070996663566)"><text x="0" y="0" font-family="Virgil, Segoe UI Emoji" font-size="18.355906861069705px" fill="#000000" text-anchor="start" style="white-space: pre;" direction="ltr" dominant-baseline="text-before-edge">7</text></g><g transform="translate(250.45590232895552 117.51635742187489) rotate(0 5.8719940185546875 11.726070996663566)"><text x="0" y="0" font-family="Virgil, Segoe UI Emoji" font-size="18.355906861069695px" fill="#000000" text-anchor="start" style="white-space: pre;" direction="ltr" dominant-baseline="text-before-edge">6</text></g><g transform="translate(292.63783521521214 117.51635742187489) rotate(0 5.670143127441406 11.726070996663566)"><text x="0" y="0" font-family="Virgil, Segoe UI Emoji" font-size="18.355906861069702px" fill="#000000" text-anchor="start" style="white-space: pre;" direction="ltr" dominant-baseline="text-before-edge">5</text></g><g transform="translate(334.2240332398567 117.51635742187489) rotate(0 5.8719940185546875 11.726070996663566)"><text x="0" y="0" font-family="Virgil, Segoe UI Emoji" font-size="18.35590686106969px" fill="#000000" text-anchor="start" style="white-space: pre;" direction="ltr" dominant-baseline="text-before-edge">4</text></g><g transform="translate(375.43045388118185 117.28778076171864) rotate(0 6.2481689453125 11.726070996663566)"><text x="0" y="0" font-family="Virgil, Segoe UI Emoji" font-size="18.355906861069702px" fill="#000000" text-anchor="start" style="white-space: pre;" direction="ltr" dominant-baseline="text-before-edge">3</text></g><g transform="translate(417.7762066724997 117.51635742187489) rotate(0 6.5325927734375 11.726070996663566)"><text x="0" y="0" font-family="Virgil, Segoe UI Emoji" font-size="18.355906861069705px" fill="#000000" text-anchor="start" style="white-space: pre;" direction="ltr" dominant-baseline="text-before-edge">2</text></g><g transform="translate(456.27204805729616 117.51635742187489) rotate(0 2.486419677734375 11.726070996663566)"><text x="0" y="0" font-family="Virgil, Segoe UI Emoji" font-size="18.35590686106967px" fill="#000000" text-anchor="start" style="white-space: pre;" direction="ltr" dominant-baseline="text-before-edge">1</text></g><g transform="translate(499.18746692360673 117.51635742187489) rotate(0 6.3123931884765625 11.726070996663566)"><text x="0" y="0" font-family="Virgil, Segoe UI Emoji" font-size="18.355906861069702px" fill="#000000" text-anchor="start" style="white-space: pre;" direction="ltr" dominant-baseline="text-before-edge">0</text></g><g transform="translate(301.49048199035906 92.89783974151203) rotate(0 24.719985961914062 12.5)"><text x="0" y="0" font-family="Virgil, Segoe UI Emoji" font-size="20px" fill="#1e1e1e" text-anchor="start" style="white-space: pre;" direction="ltr" dominant-baseline="text-before-edge">&amp;(与)</text></g><g transform="translate(313.82776226379656 201.82648964385578) rotate(0 6.1699981689453125 12.5)"><text x="0" y="0" font-family="Virgil, Segoe UI Emoji" font-size="20px" fill="#1e1e1e" text-anchor="start" style="white-space: pre;" direction="ltr" dominant-baseline="text-before-edge">=</text></g></svg>