<svg version="1.1" xmlns="http://www.w3.org/2000/svg" viewBox="0 0 693.8438583490814 559.6648361098394" width="1387.6877166981628" height="1119.3296722196787">
  <!-- svg-source:excalidraw -->
  
  <defs>
    <style class="style-fonts">
      @font-face {
        font-family: "Virgil";
        src: url("https://excalidraw.com/Virgil.woff2");
      }
      @font-face {
        font-family: "Cascadia";
        src: url("https://excalidraw.com/Cascadia.woff2");
      }
      @font-face {
        font-family: "Assistant";
        src: url("https://excalidraw.com/Assistant-Regular.woff2");
      }
    </style>
    
  </defs>
  <rect x="0" y="0" width="693.8438583490814" height="559.6648361098394" fill="#ffffff"></rect><g stroke-linecap="round" transform="translate(39.12108234444872 10) rotate(0 195.4672168673266 18.977399695856953)"><path d="M0 0 C88.57 2.71, 177.32 2.13, 390.93 0 M0 0 C89.95 0.23, 179.32 -0.02, 390.93 0 M390.93 0 C392.11 10.16, 390.17 18.45, 390.93 37.95 M390.93 0 C391.44 8.56, 391.63 16.11, 390.93 37.95 M390.93 37.95 C282.23 35, 174.89 37.32, 0 37.95 M390.93 37.95 C290.49 40.03, 189.82 39.94, 0 37.95 M0 37.95 C-0.65 29.64, 1.28 20.13, 0 0 M0 37.95 C-0.57 22.71, 0.93 7.96, 0 0" stroke="#1e1e1e" stroke-width="2" fill="none"></path></g><g stroke-linecap="round" transform="translate(125.7948936711175 95.26808668508477) rotate(0 110.06891823597033 48.488333861708654)"><path d="M111 0 C131.43 9.49, 154.1 18.82, 220.14 49 M111 0 C143.51 13.55, 173.43 28.15, 220.14 49 M220.14 49 C180.32 64.36, 140.24 83.01, 111 96.98 M220.14 49 C194.8 59.8, 167.33 73.02, 111 96.98 M111 96.98 C86.35 87.26, 61.4 76.5, 0 49 M111 96.98 C68.77 79.43, 25.56 60.17, 0 49 M0 49 C27.84 36.08, 55.44 23.52, 111 0 M0 49 C28.04 37.5, 53.67 25.75, 111 0" stroke="#1e1e1e" stroke-width="2" fill="none"></path></g><g stroke-linecap="round" transform="translate(66.57937322365603 264.75022034609583) rotate(0 167.00111732354117 18.977399695856946)"><path d="M9.49 0 C117.97 -0.5, 228.26 1.39, 324.51 0 M9.49 0 C98.41 1.37, 188.21 1.79, 324.51 0 M324.51 0 C330.82 -0.77, 332.09 1.64, 334 9.49 M324.51 0 C330.2 -1.33, 335.41 3.3, 334 9.49 M334 9.49 C335.18 15.2, 332.52 22.03, 334 28.47 M334 9.49 C335.07 15.53, 334.45 20.44, 334 28.47 M334 28.47 C334.31 35.3, 329.23 36.48, 324.51 37.95 M334 28.47 C332.62 33.73, 330.87 39.1, 324.51 37.95 M324.51 37.95 C247.41 34.41, 171.79 36.55, 9.49 37.95 M324.51 37.95 C219.25 39.32, 115.85 39.03, 9.49 37.95 M9.49 37.95 C1.21 37.23, 1.58 35.37, 0 28.47 M9.49 37.95 C5.41 36.25, 0.85 36.19, 0 28.47 M0 28.47 C1.78 22.44, 0.96 20.33, 0 9.49 M0 28.47 C0.21 22.6, -0.02 16.42, 0 9.49 M0 9.49 C-0.37 5.1, 3.39 -1.72, 9.49 0 M0 9.49 C-1.3 1.77, 5.44 -1, 9.49 0" stroke="#1e1e1e" stroke-width="2" fill="none"></path></g><g stroke-linecap="round" transform="translate(144.3696887064009 340.7795275676316) rotate(0 91.09151854011344 48.48833386170867)"><path d="M92 0 C118.22 16.83, 145.04 31.35, 182.18 49 M92 0 C113.97 12.28, 134.87 23, 182.18 49 M182.18 49 C162.24 59.77, 145.1 69.95, 92 96.98 M182.18 49 C162.25 59.07, 143.01 69.67, 92 96.98 M92 96.98 C57.04 79.19, 19.48 59.78, 0 49 M92 96.98 C61.83 80.21, 32.49 65.55, 0 49 M0 49 C20.66 36.15, 43.89 27.29, 92 0 M0 49 C30.02 32.61, 62.25 15.93, 92 0" stroke="#1e1e1e" stroke-width="2" fill="none"></path></g><g stroke-linecap="round" transform="translate(85.56960775423443 511.7100367181255) rotate(0 148.02371762768428 18.977399695856946)"><path d="M9.49 0 C81.71 -0.63, 153.5 -2.51, 286.56 0 M9.49 0 C92.64 -1.55, 175.07 -1.84, 286.56 0 M286.56 0 C292.33 -1.16, 297.27 3.28, 296.05 9.49 M286.56 0 C294.73 -2.05, 295.5 4.8, 296.05 9.49 M296.05 9.49 C295.5 15.58, 295.11 19.63, 296.05 28.47 M296.05 9.49 C296.24 16.96, 295.34 23.24, 296.05 28.47 M296.05 28.47 C294.84 33.87, 292.91 38.95, 286.56 37.95 M296.05 28.47 C294.72 37.08, 290.62 36.65, 286.56 37.95 M286.56 37.95 C230.18 37.88, 173.59 37.71, 9.49 37.95 M286.56 37.95 C193.08 37.53, 101.72 38.03, 9.49 37.95 M9.49 37.95 C5.11 36.47, 0.74 36.01, 0 28.47 M9.49 37.95 C2.08 36.13, 1.44 36.77, 0 28.47 M0 28.47 C-0.17 22.45, 1.42 19.63, 0 9.49 M0 28.47 C-0.14 24.21, 0.14 17.3, 0 9.49 M0 9.49 C-1.13 1.95, 5.15 -0.87, 9.49 0 M0 9.49 C0.86 2.39, 1.86 0.04, 9.49 0" stroke="#1e1e1e" stroke-width="2" fill="none"></path></g><g stroke-linecap="round" transform="translate(482.68342157299764 133.83220668927186) rotate(0 100.58021838804189 18.977399695856946)"><path d="M0 0 C78.26 -2.2, 158.72 -0.55, 201.16 0 M0 0 C71.3 0.01, 144.08 0.18, 201.16 0 M201.16 0 C199.4 13.22, 202.6 25.83, 201.16 37.95 M201.16 0 C201.78 8.33, 201.71 18.31, 201.16 37.95 M201.16 37.95 C135.87 36.79, 68.33 37.15, 0 37.95 M201.16 37.95 C149.61 39.75, 98.21 38.35, 0 37.95 M0 37.95 C0.68 28.52, 1.04 20.51, 0 0 M0 37.95 C-1.26 24.89, 0.51 12.84, 0 0" stroke="#1e1e1e" stroke-width="2" fill="none"></path></g><g stroke-linecap="round"><g transform="translate(235.09655885775067 48.954799391713905) rotate(0 0.5348518127075863 24.318960557989072)"><path d="M-0.17 0 C-0.02 8.22, 1.2 40.89, 1.4 48.96 M0.74 -0.47 C0.8 7.61, 1.15 39.93, 1.14 48.16" stroke="#1e1e1e" stroke-width="2" fill="none"></path></g><g transform="translate(235.09655885775067 48.954799391713905) rotate(0 0.5348518127075863 24.318960557989072)"><path d="M-7.31 25.35 C-4.08 34.87, -0.19 43.16, 1.14 48.16 M-7.31 25.35 C-5.35 31.06, -2.69 37.34, 1.14 48.16" stroke="#1e1e1e" stroke-width="2" fill="none"></path></g><g transform="translate(235.09655885775067 48.954799391713905) rotate(0 0.5348518127075863 24.318960557989072)"><path d="M9.33 25.26 C6.06 34.79, 3.45 43.12, 1.14 48.16 M9.33 25.26 C6.94 30.93, 5.24 37.23, 1.14 48.16" stroke="#1e1e1e" stroke-width="2" fill="none"></path></g></g><mask></mask><g mask="url(#mask-vBlTyYa2TFIBYtyuqtjJr)" stroke-linecap="round"><g transform="translate(235.8430359097074 190.57794138460457) rotate(0 0.8975105855379866 35.206161965416214)"><path d="M0.72 0.7 C1.06 6.1, 1.62 20.89, 1.61 32.36 C1.6 43.83, 0.67 63.27, 0.65 69.5 M-0.35 0.03 C-0.15 5.59, 0.1 21.94, 0.65 33.65 C1.2 45.37, 2.79 64.2, 2.94 70.34" stroke="#1e1e1e" stroke-width="2" fill="none"></path></g><g transform="translate(235.8430359097074 190.57794138460457) rotate(0 0.8975105855379866 35.206161965416214)"><path d="M-4.43 53.05 C-1.35 57.62, -1.2 60.48, 2.94 70.34 M-4.43 53.05 C-2.26 57.02, -0.43 60, 2.94 70.34" stroke="#1e1e1e" stroke-width="2" fill="none"></path></g><g transform="translate(235.8430359097074 190.57794138460457) rotate(0 0.8975105855379866 35.206161965416214)"><path d="M8.4 52.35 C8.04 57.19, 4.75 60.24, 2.94 70.34 M8.4 52.35 C7.7 56.41, 6.66 59.54, 2.94 70.34" stroke="#1e1e1e" stroke-width="2" fill="none"></path></g></g><mask id="mask-vBlTyYa2TFIBYtyuqtjJr"><rect x="0" y="0" fill="#fff" width="337.6380570807833" height="360.990265315437"></rect><rect x="229.874327378045" y="213.91074667152373" fill="#000" width="15.17999267578125" height="18.977399695856953" opacity="1"></rect></mask><g stroke-linecap="round"><g transform="translate(234.20347330987795 303.5657362415935) rotate(0 0.7422507368607398 18.086636149849625)"><path d="M-0.01 -0.21 C0.1 5.69, 0.74 29.74, 0.96 35.75 M-0.67 -0.8 C-0.44 5.14, 1.66 30.06, 1.92 36.24" stroke="#1e1e1e" stroke-width="2" fill="none"></path></g><g transform="translate(234.20347330987795 303.5657362415935) rotate(0 0.7422507368607398 18.086636149849625)"><path d="M-5.37 19.67 C-3.04 24.78, -0.76 31.36, 1.92 36.24 M-5.37 19.67 C-3.19 23.28, -1.9 28.02, 1.92 36.24" stroke="#1e1e1e" stroke-width="2" fill="none"></path></g><g transform="translate(234.20347330987795 303.5657362415935) rotate(0 0.7422507368607398 18.086636149849625)"><path d="M6.98 18.86 C4.86 24.26, 2.7 31.13, 1.92 36.24 M6.98 18.86 C6.17 22.67, 4.48 27.6, 1.92 36.24" stroke="#1e1e1e" stroke-width="2" fill="none"></path></g></g><mask></mask><g mask="url(#mask-UrgLJx-OHyB6ZSzddciLT)" stroke-linecap="round"><g transform="translate(236.6543515998618 438.5862440614259) rotate(0 -0.9240867492080156 34.70782580744549)"><path d="M-1.15 -0.91 C-1.23 4.63, -0.5 21.08, -0.49 32.81 C-0.49 44.54, -1.05 63.57, -1.12 69.49 M0.45 1.22 C0.18 6.95, -1.29 22.38, -1.62 33.98 C-1.94 45.59, -1.74 65.03, -1.5 70.84" stroke="#1e1e1e" stroke-width="2" fill="none"></path></g><g transform="translate(236.6543515998618 438.5862440614259) rotate(0 -0.9240867492080156 34.70782580744549)"><path d="M-8.04 54.1 C-7.52 58.67, -5.23 65.27, -1.5 70.84 M-8.04 54.1 C-6.12 59.92, -4.61 63.78, -1.5 70.84" stroke="#1e1e1e" stroke-width="2" fill="none"></path></g><g transform="translate(236.6543515998618 438.5862440614259) rotate(0 -0.9240867492080156 34.70782580744549)"><path d="M4.25 53.81 C1.1 58.35, -0.29 65.04, -1.5 70.84 M4.25 53.81 C2.41 59.61, 0.16 63.56, -1.5 70.84" stroke="#1e1e1e" stroke-width="2" fill="none"></path></g></g><mask id="mask-UrgLJx-OHyB6ZSzddciLT"><rect x="0" y="0" fill="#fff" width="338.5025250982779" height="608.0018956763168"></rect><rect x="228.90582634191242" y="462.60062904261633" fill="#000" width="15.17999267578125" height="18.977399695856953" opacity="1"></rect></mask><g transform="translate(82.7883724539629 19.488699847928476) rotate(0 151.79992675781244 9.488699847928476)"><text x="151.7999267578125" y="0" font-family="Virgil, Segoe UI Emoji" font-size="15.181919756685563px" fill="#1e1e1e" text-anchor="middle" style="white-space: pre;" direction="ltr" dominant-baseline="text-before-edge">调用群体下载接口获取营销目标客户账号集合</text></g><g transform="translate(190.28937476175895 124.53485392008216) rotate(0 45.53997802734375 18.97739969585696)"><text x="45.53997802734375" y="0" font-family="Virgil, Segoe UI Emoji" font-size="15.181919756685563px" fill="#1e1e1e" text-anchor="middle" style="white-space: pre;" direction="ltr" dominant-baseline="text-before-edge">账号集合已无</text><text x="45.53997802734375" y="18.977399695856953" font-family="Virgil, Segoe UI Emoji" font-size="15.181919756685563px" fill="#1e1e1e" text-anchor="middle" style="white-space: pre;" direction="ltr" dominant-baseline="text-before-edge">未遍历元素</text></g><g transform="translate(104.55055280305658 274.23892019402433) rotate(0 129.02993774414062 9.488699847928487)"><text x="129.02993774414062" y="0" font-family="Virgil, Segoe UI Emoji" font-size="15.181919756685563px" fill="#1e1e1e" text-anchor="middle" style="white-space: pre;" direction="ltr" dominant-baseline="text-before-edge">依次取出集合中账号调用群体命中接口</text></g><g transform="translate(197.46546628700446 370.04629480262895) rotate(0 37.949981689453125 18.977399695856946)"><text x="37.949981689453125" y="0" font-family="Virgil, Segoe UI Emoji" font-size="15.181919756685563px" fill="#1e1e1e" text-anchor="middle" style="white-space: pre;" direction="ltr" dominant-baseline="text-before-edge">是否命中黑</text><text x="37.949981689453125" y="18.977399695856953" font-family="Virgil, Segoe UI Emoji" font-size="15.181919756685563px" fill="#1e1e1e" text-anchor="middle" style="white-space: pre;" direction="ltr" dominant-baseline="text-before-edge">名单</text></g><g transform="translate(119.74338031355933 521.198736566054) rotate(0 113.84994506835943 9.488699847928501)"><text x="113.84994506835938" y="0" font-family="Virgil, Segoe UI Emoji" font-size="15.181919756685563px" fill="#1e1e1e" text-anchor="middle" style="white-space: pre;" direction="ltr" dominant-baseline="text-before-edge">将客户账号加入最终触达账号集合</text></g><g transform="translate(522.5436692579145 143.32090653720033) rotate(0 60.719970703125 9.488699847928473)"><text x="60.719970703125" y="0" font-family="Virgil, Segoe UI Emoji" font-size="15.181919756685563px" fill="#1e1e1e" text-anchor="middle" style="white-space: pre;" direction="ltr" dominant-baseline="text-before-edge">处理后续营销逻辑</text></g><g transform="translate(229.8743273780451 213.91074667152375) rotate(0 7.2601514378714 11.85040779587068)"><text x="7.589996337890625" y="0" font-family="Virgil, Segoe UI Emoji" font-size="15.181919756685563px" fill="#1e1e1e" text-anchor="middle" style="white-space: pre;" direction="ltr" dominant-baseline="text-before-edge">否</text></g><g transform="translate(228.90582634191242 462.6006290426162) rotate(0 7.080075856199414 10.951075617069506)"><text x="7.589996337890625" y="0" font-family="Virgil, Segoe UI Emoji" font-size="15.181919756685563px" fill="#1e1e1e" text-anchor="middle" style="white-space: pre;" direction="ltr" dominant-baseline="text-before-edge">否</text></g><g stroke-linecap="round"><g transform="translate(383.34403680826256 528.6165305948366) rotate(0 17.28199720513453 -190.28030120896156)"><path d="M-0.07 0.74 C12.19 -37.22, 79.97 -163.75, 73.22 -227.14 C66.46 -290.52, -21.67 -354.19, -40.59 -379.57 M-1.57 0.08 C11.08 -37.74, 81.49 -162.08, 75.39 -225.66 C69.29 -289.24, -18.87 -355.44, -38.17 -381.4" stroke="#1e1e1e" stroke-width="2" fill="none"></path></g><g transform="translate(383.34403680826256 528.6165305948366) rotate(0 17.28199720513453 -190.28030120896156)"><path d="M-15.71 -370.42 C-20.65 -375.13, -28.18 -377.92, -38.17 -381.4 M-15.71 -370.42 C-23.75 -373.58, -32.3 -378.67, -38.17 -381.4" stroke="#1e1e1e" stroke-width="2" fill="none"></path></g><g transform="translate(383.34403680826256 528.6165305948366) rotate(0 17.28199720513453 -190.28030120896156)"><path d="M-28.02 -358.55 C-29.67 -366.49, -33.85 -372.5, -38.17 -381.4 M-28.02 -358.55 C-31.29 -366.37, -35.14 -376, -38.17 -381.4" stroke="#1e1e1e" stroke-width="2" fill="none"></path></g></g><mask></mask><g mask="url(#mask-ygCC5POGWvOkV4Fbq8Png)" stroke-linecap="round"><g transform="translate(143.0994452138226 391.93497568715276) rotate(0 -62.75472443796599 -122.7692069524725)"><path d="M0.72 -0.48 C-20.04 -22.21, -121.66 -88.73, -124.94 -129.68 C-128.21 -170.63, -36.36 -227.05, -18.91 -246.2 M-0.36 -1.79 C-21.2 -23.44, -122.43 -87.98, -125.58 -128.56 C-128.74 -169.13, -36.83 -225.55, -19.28 -245.23" stroke="#1e1e1e" stroke-width="2" fill="none"></path></g><g transform="translate(143.0994452138226 391.93497568715276) rotate(0 -62.75472443796599 -122.7692069524725)"><path d="M-31.8 -223.59 C-29.36 -228.54, -26.49 -234.07, -19.28 -245.23 M-31.8 -223.59 C-29.63 -229.61, -25.33 -234.07, -19.28 -245.23" stroke="#1e1e1e" stroke-width="2" fill="none"></path></g><g transform="translate(143.0994452138226 391.93497568715276) rotate(0 -62.75472443796599 -122.7692069524725)"><path d="M-42.78 -236.7 C-37.3 -238.18, -31.47 -240.17, -19.28 -245.23 M-42.78 -236.7 C-37.98 -239.6, -30.99 -240.84, -19.28 -245.23" stroke="#1e1e1e" stroke-width="2" fill="none"></path></g></g><mask id="mask-ygCC5POGWvOkV4Fbq8Png"><rect x="0" y="0" fill="#fff" width="368.6088940897546" height="737.4733895920978"></rect><rect x="10" y="253.5528887997204" fill="#000" width="15.17999267578125" height="18.977399695856953" opacity="1"></rect></mask><g transform="translate(10 253.5528887997204) rotate(0 70.62731032878048 15.0400642350845)"><text x="7.589996337890625" y="0" font-family="Virgil, Segoe UI Emoji" font-size="15.181919756685563px" fill="#1e1e1e" text-anchor="middle" style="white-space: pre;" direction="ltr" dominant-baseline="text-before-edge">是</text></g><g mask="url(#mask-ejdacDW2qysBRjZVxfYxQ)" stroke-linecap="round"><g transform="translate(345.4358986119977 147.83388159671887) rotate(0 68.12376148049998 1.0870346010329897)"><path d="M0.14 0.04 C13.16 0.36, 55.65 1.22, 78.14 1.59 C100.62 1.96, 125.25 2.39, 135.05 2.27 M-1.25 -0.98 C11.56 -0.48, 53.8 2.59, 76.89 2.82 C99.99 3.06, 127.2 0.61, 137.31 0.44" stroke="#1e1e1e" stroke-width="2" fill="none"></path></g><g transform="translate(345.4358986119977 147.83388159671887) rotate(0 68.12376148049998 1.0870346010329897)"><path d="M114.26 10.11 C121.36 6.2, 127.31 2.21, 137.31 0.44 M114.26 10.11 C122.7 7.34, 131.23 2.81, 137.31 0.44" stroke="#1e1e1e" stroke-width="2" fill="none"></path></g><g transform="translate(345.4358986119977 147.83388159671887) rotate(0 68.12376148049998 1.0870346010329897)"><path d="M113.43 -6.97 C120.74 -5.69, 126.94 -4.5, 137.31 0.44 M113.43 -6.97 C122.28 -3.24, 131.13 -1.28, 137.31 0.44" stroke="#1e1e1e" stroke-width="2" fill="none"></path></g></g><mask id="mask-ejdacDW2qysBRjZVxfYxQ"><rect x="0" y="0" fill="#fff" width="581.6834215729976" height="250.00795079878486"></rect><rect x="416.55238172566123" y="140.51925095085636" fill="#000" width="15.17999267578125" height="18.977399695856953" opacity="1"></rect></mask><g transform="translate(416.55238172566123 140.51925095085636) rotate(0 -3.083006851251639 8.245406836630053)"><text x="7.589996337890625" y="0" font-family="Virgil, Segoe UI Emoji" font-size="15.181919756685563px" fill="#1e1e1e" text-anchor="middle" style="white-space: pre;" direction="ltr" dominant-baseline="text-before-edge">是</text></g></svg>