<svg version="1.1" xmlns="http://www.w3.org/2000/svg" viewBox="0 0 1503.9315719604492 404.4415740966797" width="3007.8631439208984" height="808.8831481933594">
  <!-- svg-source:excalidraw -->
  
  <defs>
    <style class="style-fonts">
      @font-face {
        font-family: "Virgil";
        src: url("https://excalidraw.com/Virgil.woff2");
      }
      @font-face {
        font-family: "Cascadia";
        src: url("https://excalidraw.com/Cascadia.woff2");
      }
      @font-face {
        font-family: "Assistant";
        src: url("https://excalidraw.com/Assistant-Regular.woff2");
      }
    </style>
    
  </defs>
  <rect x="0" y="0" width="1503.9315719604492" height="404.4415740966797" fill="#ffffff"></rect><g stroke-linecap="round" transform="translate(707.1297787951481 292.3489088332726) rotate(0 20.69815466649385 21.91569317628762)"><path d="M0 0 C11.52 0.4, 24.75 0.57, 41.4 0 M0 0 C12.43 0.42, 25.84 -0.3, 41.4 0 M41.4 0 C41.02 16.83, 40.95 32.07, 41.4 43.83 M41.4 0 C41.98 11.03, 41.99 22.79, 41.4 43.83 M41.4 43.83 C31.77 44.23, 21.3 42.8, 0 43.83 M41.4 43.83 C32 43.55, 22.14 44.18, 0 43.83 M0 43.83 C0 28.73, 0.81 15.88, 0 0 M0 43.83 C-0.16 35.19, -0.52 26.48, 0 0" stroke="#000000" stroke-width="4" fill="none"></path></g><g transform="translate(720.9479362082241 301.76460200956035) rotate(0 6.879997253417969 12.5)"><text x="6.879997253417969" y="0" font-family="Virgil, Segoe UI Emoji" font-size="20px" fill="#1e1e1e" text-anchor="middle" style="white-space: pre;" direction="ltr" dominant-baseline="text-before-edge">0</text></g><g stroke-linecap="round" transform="translate(748.5260881281312 292.3489088332726) rotate(0 20.69815466649385 21.91569317628762)"><path d="M0 0 C13.81 0.41, 27.22 -1, 41.4 0 M0 0 C15.92 0.29, 31.09 -0.08, 41.4 0 M41.4 0 C40.84 17.85, 41.14 34.5, 41.4 43.83 M41.4 0 C41.22 11.5, 41.33 22.79, 41.4 43.83 M41.4 43.83 C26.29 44.61, 12.6 44.33, 0 43.83 M41.4 43.83 C31.59 44.09, 21.88 43.99, 0 43.83 M0 43.83 C-1.17 35.93, -0.3 26.25, 0 0 M0 43.83 C0.07 28.97, 0.23 13.91, 0 0" stroke="#000000" stroke-width="4" fill="none"></path></g><g transform="translate(762.3442455412071 301.76460200956035) rotate(0 6.879997253417969 12.5)"><text x="6.879997253417969" y="0" font-family="Virgil, Segoe UI Emoji" font-size="20px" fill="#1e1e1e" text-anchor="middle" style="white-space: pre;" direction="ltr" dominant-baseline="text-before-edge">0</text></g><g stroke-linecap="round" transform="translate(789.1107051212615 292.3489088332726) rotate(0 20.69815466649385 21.91569317628762)"><path d="M0 0 C15.28 0.32, 28.33 0.83, 41.4 0 M0 0 C14.07 -0.16, 27.35 -0.13, 41.4 0 M41.4 0 C40.97 18.16, 42.05 34.1, 41.4 43.83 M41.4 0 C41.54 13.46, 40.83 27.57, 41.4 43.83 M41.4 43.83 C24.35 44.42, 9.15 44.19, 0 43.83 M41.4 43.83 C27.42 44.28, 14.57 43.35, 0 43.83 M0 43.83 C0.47 25.94, 0.75 9.18, 0 0 M0 43.83 C-0.36 28.38, 0.37 13.02, 0 0" stroke="#000000" stroke-width="4" fill="none"></path></g><g transform="translate(802.9288625343373 301.76460200956035) rotate(0 6.879997253417969 12.5)"><text x="6.879997253417969" y="0" font-family="Virgil, Segoe UI Emoji" font-size="20px" fill="#1e1e1e" text-anchor="middle" style="white-space: pre;" direction="ltr" dominant-baseline="text-before-edge">0</text></g><g stroke-linecap="round" transform="translate(830.3828689464339 292.3489088332726) rotate(0 20.69815466649385 21.96453857421875)"><path d="M0.72 -0.95 L42.13 -0.11 L40.61 44.5 L-0.6 44.4" stroke="none" stroke-width="0" fill="#ffc9c9"></path><path d="M0 0 C13.26 -0.34, 25.49 0.72, 41.4 0 M0 0 C10.77 0.02, 20.95 -0.11, 41.4 0 M41.4 0 C41.73 16.09, 41.48 33.6, 41.4 43.93 M41.4 0 C41.68 8.98, 41.54 17.54, 41.4 43.93 M41.4 43.93 C27.37 44.62, 12.88 42.99, 0 43.93 M41.4 43.93 C25.85 43.67, 9.41 43.95, 0 43.93 M0 43.93 C0.3 33.74, 0.35 22.53, 0 0 M0 43.93 C-0.49 32.64, -0.59 22.37, 0 0" stroke="#000000" stroke-width="4" fill="none"></path></g><g transform="translate(838.4650339278691 304.31344740749137) rotate(0 12.615989685058594 10)"><text x="12.615989685058594" y="0" font-family="Virgil, Segoe UI Emoji" font-size="16px" fill="#1e1e1e" text-anchor="middle" style="white-space: pre;" direction="ltr" dominant-baseline="text-before-edge">150</text></g><g stroke-linecap="round" transform="translate(707.10851008361 180.21511977077262) rotate(0 20.69815466649385 21.91569317628762)"><path d="M0 0 C15.91 0.13, 30.78 0.55, 41.4 0 M0 0 C12.8 -0.67, 25.79 -0.23, 41.4 0 M41.4 0 C42.23 13.43, 41.96 27.31, 41.4 43.83 M41.4 0 C41.67 14.96, 40.94 30.34, 41.4 43.83 M41.4 43.83 C31.39 44.71, 23.17 43.2, 0 43.83 M41.4 43.83 C26.98 44.38, 12.19 44.27, 0 43.83 M0 43.83 C-1.08 30.6, 0.33 17.72, 0 0 M0 43.83 C0.14 26.43, -0.21 10.34, 0 0" stroke="#000000" stroke-width="4" fill="none"></path></g><g transform="translate(720.9266674966859 189.63081294706035) rotate(0 6.879997253417969 12.5)"><text x="6.879997253417969" y="0" font-family="Virgil, Segoe UI Emoji" font-size="20px" fill="#1e1e1e" text-anchor="middle" style="white-space: pre;" direction="ltr" dominant-baseline="text-before-edge">0</text></g><g stroke-linecap="round" transform="translate(748.5048194165894 179.98654311061637) rotate(0 20.69815466649385 21.91569317628762)"><path d="M0 0 C13.39 -1.12, 27.53 0.14, 41.4 0 M0 0 C8.41 0.24, 16.41 0.39, 41.4 0 M41.4 0 C42.01 11.92, 40.96 25.93, 41.4 43.83 M41.4 0 C40.85 9.32, 41.62 18.04, 41.4 43.83 M41.4 43.83 C26.52 43.07, 10.98 44.37, 0 43.83 M41.4 43.83 C25.25 44.28, 9.34 43.5, 0 43.83 M0 43.83 C0.77 31.04, 0.38 17.36, 0 0 M0 43.83 C0.19 34.27, 0.27 24.73, 0 0" stroke="#000000" stroke-width="4" fill="none"></path></g><g transform="translate(762.3229768296653 189.4022362869041) rotate(0 6.879997253417969 12.5)"><text x="6.879997253417969" y="0" font-family="Virgil, Segoe UI Emoji" font-size="20px" fill="#1e1e1e" text-anchor="middle" style="white-space: pre;" direction="ltr" dominant-baseline="text-before-edge">0</text></g><g stroke-linecap="round" transform="translate(831.4693918332861 180.44363539577262) rotate(0 20.69815466649385 21.91569317628762)"><path d="M0 0 C16.74 -0.66, 33.33 -0.16, 41.4 0 M0 0 C14.02 -0.38, 29.09 -0.55, 41.4 0 M41.4 0 C41.31 11.14, 40.24 21.57, 41.4 43.83 M41.4 0 C40.93 12.88, 41.58 25.75, 41.4 43.83 M41.4 43.83 C26.76 44.39, 9.95 43.93, 0 43.83 M41.4 43.83 C27.44 44.25, 13.05 43.58, 0 43.83 M0 43.83 C-0.61 31.59, -0.96 18.14, 0 0 M0 43.83 C0.36 31.81, 0.46 19.94, 0 0" stroke="#000000" stroke-width="4" fill="none"></path></g><g transform="translate(845.287549246362 189.85932857206035) rotate(0 6.879997253417969 12.5)"><text x="6.879997253417969" y="0" font-family="Virgil, Segoe UI Emoji" font-size="20px" fill="#1e1e1e" text-anchor="middle" style="white-space: pre;" direction="ltr" dominant-baseline="text-before-edge">0</text></g><g stroke-linecap="round" transform="translate(873.1553974338532 180.21505873561637) rotate(0 20.69815466649385 21.91569317628762)"><path d="M0 0 C10.25 0.22, 20.08 -0.61, 41.4 0 M0 0 C9.88 -0.3, 19.97 0.25, 41.4 0 M41.4 0 C41.07 15.53, 41.76 32.03, 41.4 43.83 M41.4 0 C41.89 15.55, 41.57 30.72, 41.4 43.83 M41.4 43.83 C27.14 44.37, 12.83 44.59, 0 43.83 M41.4 43.83 C26.96 44.11, 12.78 43.45, 0 43.83 M0 43.83 C-0.12 27.97, -0.65 13.72, 0 0 M0 43.83 C0.11 31.73, -0.05 20.09, 0 0" stroke="#000000" stroke-width="4" fill="none"></path></g><g transform="translate(886.9735548469291 189.6307519119041) rotate(0 6.879997253417969 12.5)"><text x="6.879997253417969" y="0" font-family="Virgil, Segoe UI Emoji" font-size="20px" fill="#1e1e1e" text-anchor="middle" style="white-space: pre;" direction="ltr" dominant-baseline="text-before-edge">0</text></g><g stroke-linecap="round" transform="translate(914.5517067668453 180.44363539577262) rotate(0 20.69815466649385 21.91569317628762)"><path d="M0 0 C12.66 0.95, 25.5 -0.49, 41.4 0 M0 0 C8.81 -0.5, 17.27 -0.08, 41.4 0 M41.4 0 C41.99 10.42, 42.43 20.12, 41.4 43.83 M41.4 0 C41.68 15.66, 41.45 32.49, 41.4 43.83 M41.4 43.83 C27.29 44.59, 11.36 43.89, 0 43.83 M41.4 43.83 C25.47 43.36, 8.93 43.6, 0 43.83 M0 43.83 C-0.11 33.85, -0.12 23.04, 0 0 M0 43.83 C-0.28 32.68, 0.44 21.89, 0 0" stroke="#000000" stroke-width="4" fill="none"></path></g><g transform="translate(928.3698641799213 189.85932857206035) rotate(0 6.879997253417969 12.5)"><text x="6.879997253417969" y="0" font-family="Virgil, Segoe UI Emoji" font-size="20px" fill="#1e1e1e" text-anchor="middle" style="white-space: pre;" direction="ltr" dominant-baseline="text-before-edge">0</text></g><g stroke-linecap="round" transform="translate(955.8276547717106 179.98648207546012) rotate(0 20.69815466649385 21.91569317628762)"><path d="M0 0 C14.86 -0.68, 31.75 0.85, 41.4 0 M0 0 C8.1 0.31, 16.69 0.26, 41.4 0 M41.4 0 C42.27 16.27, 42.2 33.03, 41.4 43.83 M41.4 0 C41.68 9.45, 41.79 18.26, 41.4 43.83 M41.4 43.83 C27.37 44.15, 11.13 44.3, 0 43.83 M41.4 43.83 C31.85 43.36, 23.11 43.62, 0 43.83 M0 43.83 C-0.41 27.9, 0.05 11.1, 0 0 M0 43.83 C-0.42 30.87, -0.22 18.69, 0 0" stroke="#000000" stroke-width="4" fill="none"></path></g><g transform="translate(969.6458121847866 189.40217525174785) rotate(0 6.879997253417969 12.5)"><text x="6.879997253417969" y="0" font-family="Virgil, Segoe UI Emoji" font-size="20px" fill="#1e1e1e" text-anchor="middle" style="white-space: pre;" direction="ltr" dominant-baseline="text-before-edge">0</text></g><g stroke-linecap="round" transform="translate(997.3443254328187 180.44363539577262) rotate(0 20.698154666493906 21.91569317628762)"><path d="M0 0 C8.11 0.58, 18 -0.93, 41.4 0 M0 0 C15.13 0.36, 29.89 0.24, 41.4 0 M41.4 0 C40.59 13.4, 41.99 27.15, 41.4 43.83 M41.4 0 C41.86 16.54, 41.51 34.39, 41.4 43.83 M41.4 43.83 C26.81 43.71, 13.45 43.36, 0 43.83 M41.4 43.83 C32.69 43.62, 23.57 43.53, 0 43.83 M0 43.83 C-0.14 30.78, 0.45 15.38, 0 0 M0 43.83 C0.17 34.84, -0.37 25.33, 0 0" stroke="#000000" stroke-width="4" fill="none"></path></g><g transform="translate(1011.1624828458946 189.85932857206035) rotate(0 6.879997253418026 12.5)"><text x="6.879997253417969" y="0" font-family="Virgil, Segoe UI Emoji" font-size="20px" fill="#1e1e1e" text-anchor="middle" style="white-space: pre;" direction="ltr" dominant-baseline="text-before-edge">0</text></g><g stroke-linecap="round" transform="translate(1037.9289424259491 180.21505873561637) rotate(0 20.698154666493906 21.91569317628762)"><path d="M0 0 C16.01 -0.43, 31.35 0.87, 41.4 0 M0 0 C16.19 0.16, 32.61 -0.61, 41.4 0 M41.4 0 C42.37 14.28, 41.97 27.69, 41.4 43.83 M41.4 0 C41.55 9.15, 41.62 18.34, 41.4 43.83 M41.4 43.83 C29.09 44.19, 18.13 44.39, 0 43.83 M41.4 43.83 C30.3 43.73, 18.77 43.66, 0 43.83 M0 43.83 C-1 26.43, -0.36 9.38, 0 0 M0 43.83 C0.11 29.23, 0.57 14.3, 0 0" stroke="#000000" stroke-width="4" fill="none"></path></g><g transform="translate(1051.747099839025 189.6307519119041) rotate(0 6.879997253417969 12.5)"><text x="6.879997253417969" y="0" font-family="Virgil, Segoe UI Emoji" font-size="20px" fill="#1e1e1e" text-anchor="middle" style="white-space: pre;" direction="ltr" dominant-baseline="text-before-edge">0</text></g><g stroke-linecap="round" transform="translate(1079.325251758934 180.19778578639762) rotate(0 20.698154666493906 21.91569317628762)"><path d="M0 0 C10.86 0.54, 20.59 -0.11, 41.4 0 M0 0 C14.98 0.43, 30.14 0.63, 41.4 0 M41.4 0 C40.64 16.32, 42.41 33.16, 41.4 43.83 M41.4 0 C41.39 11.2, 41.22 22.28, 41.4 43.83 M41.4 43.83 C26.71 44.5, 12.14 44.17, 0 43.83 M41.4 43.83 C29.53 44.02, 16.49 43.35, 0 43.83 M0 43.83 C0.46 30.01, -0.18 17.59, 0 0 M0 43.83 C-0.19 27.51, -0.33 11.57, 0 0" stroke="#000000" stroke-width="4" fill="none"></path></g><g transform="translate(1093.1434091720098 189.61347896268535) rotate(0 6.879997253417969 12.5)"><text x="6.879997253417969" y="0" font-family="Virgil, Segoe UI Emoji" font-size="20px" fill="#1e1e1e" text-anchor="middle" style="white-space: pre;" direction="ltr" dominant-baseline="text-before-edge">0</text></g><g stroke-linecap="round" transform="translate(486.1075460786182 98.25119922130659) rotate(0 61.461996218358394 22.64171669873582)"><path d="M0 0 C30.79 2.05, 61.32 1.68, 122.92 0 M0 0 C33.79 -0.27, 67.63 -2.09, 122.92 0 M122.92 0 C123.7 9.37, 125.07 20.86, 122.92 45.28 M122.92 0 C123.4 15.18, 122.92 32.23, 122.92 45.28 M122.92 45.28 C97.24 43.77, 70.32 47.51, 0 45.28 M122.92 45.28 C81.08 46, 38.84 46.22, 0 45.28 M0 45.28 C-1.22 33.75, 1.55 25.51, 0 0 M0 45.28 C-0.31 34.96, -0.65 23.57, 0 0" stroke="#000000" stroke-width="4" fill="none"></path></g><g stroke-linecap="round" transform="translate(486.1075460786182 143.6865999076208) rotate(0 61.461996218358394 22.641716698735877)"><path d="M0 0 C28.46 0.02, 52.42 -1.64, 122.92 0 M0 0 C49.02 -2.02, 96.35 -0.71, 122.92 0 M122.92 0 C125.03 9.04, 124.03 21.66, 122.92 45.28 M122.92 0 C122.73 18.18, 122.16 34.78, 122.92 45.28 M122.92 45.28 C82.71 46.01, 43.02 42.43, 0 45.28 M122.92 45.28 C85.95 47.12, 48.4 45.75, 0 45.28 M0 45.28 C1.68 31.2, -0.97 17.72, 0 0 M0 45.28 C-0.54 30.53, -0.48 15.96, 0 0" stroke="#000000" stroke-width="4" fill="none"></path></g><g stroke-linecap="round" transform="translate(486.1075460786182 189.49984176389444) rotate(0 61.461996218358394 22.641716698735877)"><path d="M0 0 C42.52 -1.42, 88.01 0.11, 122.92 0 M0 0 C47.24 1.53, 94.87 1.45, 122.92 0 M122.92 0 C124.34 11.07, 125.11 20.09, 122.92 45.28 M122.92 0 C121.94 10.56, 123.08 22.04, 122.92 45.28 M122.92 45.28 C98.29 44.72, 72 46.69, 0 45.28 M122.92 45.28 C76.26 46.02, 31.33 45.74, 0 45.28 M0 45.28 C-1.6 35.65, 0.04 25.8, 0 0 M0 45.28 C-0.33 29.54, 0.25 15.97, 0 0" stroke="#000000" stroke-width="4" fill="none"></path></g><g stroke-linecap="round" transform="translate(486.1075460786182 235.9743056675843) rotate(0 61.461996218358394 22.641716698735877)"><path d="M0 0 C42.71 1.13, 83.44 1.76, 122.92 0 M0 0 C24.7 -0.17, 50.06 0.51, 122.92 0 M122.92 0 C124.89 11.32, 121.93 21.25, 122.92 45.28 M122.92 0 C122.82 16.87, 121.61 33.12, 122.92 45.28 M122.92 45.28 C74.53 44.48, 27.6 43.93, 0 45.28 M122.92 45.28 C74.47 44.06, 25.05 45.44, 0 45.28 M0 45.28 C0.64 31.95, 0.99 18.68, 0 0 M0 45.28 C0.22 34.42, -0.62 22.19, 0 0" stroke="#000000" stroke-width="4" fill="none"></path></g><g stroke-linecap="round" transform="translate(486.1075460786182 281.03186518395614) rotate(0 61.461996218358394 22.641716698735877)"><path d="M0 0 C32.38 0.82, 59.35 -1.44, 122.92 0 M0 0 C40.82 0.62, 82.69 0.12, 122.92 0 M122.92 0 C122.11 15.79, 124.62 31.01, 122.92 45.28 M122.92 0 C122.12 12.39, 123.99 25.04, 122.92 45.28 M122.92 45.28 C98.05 45.14, 72.15 43.71, 0 45.28 M122.92 45.28 C90.33 45.1, 59.39 43.77, 0 45.28 M0 45.28 C0.62 30.89, -0.84 18.04, 0 0 M0 45.28 C-0.88 34.98, 0.24 23.13, 0 0" stroke="#000000" stroke-width="4" fill="none"></path></g><g transform="translate(458.0743189336808 109.27429994411602) rotate(0 6.697593688964844 13.177210801958893)"><text x="0" y="0" font-family="Virgil, Segoe UI Emoji" font-size="20.938698167987152px" fill="#000000" text-anchor="start" style="white-space: pre;" direction="ltr" dominant-baseline="text-before-edge">4</text></g><g transform="translate(462.3250320955871 154.52314155278054) rotate(0 7.1266632080078125 13.177210801958836)"><text x="0" y="0" font-family="Virgil, Segoe UI Emoji" font-size="20.938698167987138px" fill="#000000" text-anchor="start" style="white-space: pre;" direction="ltr" dominant-baseline="text-before-edge">3</text></g><g transform="translate(457.64924761747756 199.77198316143767) rotate(0 7.451080322265625 13.177210801958836)"><text x="0" y="0" font-family="Virgil, Segoe UI Emoji" font-size="20.93869816798714px" fill="#000000" text-anchor="start" style="white-space: pre;" direction="ltr" dominant-baseline="text-before-edge">2</text></g><g transform="translate(457.86178327557985 245.0208247701039) rotate(0 2.8360137939453125 13.177210801958836)"><text x="0" y="0" font-family="Virgil, Segoe UI Emoji" font-size="20.938698167987152px" fill="#000000" text-anchor="start" style="white-space: pre;" direction="ltr" dominant-baseline="text-before-edge">1</text></g><g transform="translate(458.2868545917758 290.2696663787701) rotate(0 7.199913024902344 13.177210801958836)"><text x="0" y="0" font-family="Virgil, Segoe UI Emoji" font-size="20.938698167987162px" fill="#000000" text-anchor="start" style="white-space: pre;" direction="ltr" dominant-baseline="text-before-edge">0</text></g><g stroke-linecap="round"><g transform="translate(612.1577758789062 256.7192687988281) rotate(0 47.16400146484375 -28.014480590820312)"><path d="M0 0 C23.44 -13.87, 44.38 -27.52, 94.33 -56.03 M0 0 C24.18 -14.59, 47.64 -29.47, 94.33 -56.03" stroke="#1e1e1e" stroke-width="2" fill="none"></path></g><g transform="translate(612.1577758789062 256.7192687988281) rotate(0 47.16400146484375 -28.014480590820312)"><path d="M78.28 -36.86 C83.75 -41.95, 86.66 -47.1, 94.33 -56.03 M78.28 -36.86 C82.67 -41.9, 86.04 -47.32, 94.33 -56.03" stroke="#1e1e1e" stroke-width="2" fill="none"></path></g><g transform="translate(612.1577758789062 256.7192687988281) rotate(0 47.16400146484375 -28.014480590820312)"><path d="M69.71 -51.66 C77.19 -53.37, 82.07 -55.11, 94.33 -56.03 M69.71 -51.66 C76.42 -52.92, 81.99 -54.54, 94.33 -56.03" stroke="#1e1e1e" stroke-width="2" fill="none"></path></g></g><mask></mask><g stroke-linecap="round"><g transform="translate(610.7184448242188 302.621826171875) rotate(0 46.7694091796875 5.7773895263671875)"><path d="M0 0 C26.26 3.97, 52.65 7.32, 93.54 11.55 M0 0 C24.31 2.49, 46.88 5.37, 93.54 11.55" stroke="#1e1e1e" stroke-width="2" fill="none"></path></g><g transform="translate(610.7184448242188 302.621826171875) rotate(0 46.7694091796875 5.7773895263671875)"><path d="M69.13 16.97 C75.73 15.67, 82.34 14.16, 93.54 11.55 M69.13 16.97 C76.18 15.36, 81.48 14.01, 93.54 11.55" stroke="#1e1e1e" stroke-width="2" fill="none"></path></g><g transform="translate(610.7184448242188 302.621826171875) rotate(0 46.7694091796875 5.7773895263671875)"><path d="M71.36 0.02 C77.22 3.55, 83.2 6.89, 93.54 11.55 M71.36 0.02 C77.85 2.65, 82.59 5.53, 93.54 11.55" stroke="#1e1e1e" stroke-width="2" fill="none"></path></g></g><mask></mask><g transform="translate(129.45419311523438 283.2490692138672) rotate(0 15.769989013671875 12.5)"><text x="0" y="0" font-family="Virgil, Segoe UI Emoji" font-size="20px" fill="#1e1e1e" text-anchor="start" style="white-space: pre;" direction="ltr" dominant-baseline="text-before-edge">150</text></g><g transform="translate(220.5592498779297 286.0499725341797) rotate(0 37.749977111816406 12.5)"><text x="0" y="0" font-family="Virgil, Segoe UI Emoji" font-size="20px" fill="#1e1e1e" text-anchor="start" style="white-space: pre;" direction="ltr" dominant-baseline="text-before-edge">(0, 150)</text></g><g transform="translate(94.27655792236328 226.75083923339844) rotate(0 36.40998077392578 12.5)"><text x="0" y="0" font-family="Virgil, Segoe UI Emoji" font-size="20px" fill="#1e1e1e" text-anchor="start" style="white-space: pre;" direction="ltr" dominant-baseline="text-before-edge">150000</text></g><g transform="translate(220.7256088256836 229.65599060058594) rotate(0 53.439964294433594 12.5)"><text x="0" y="0" font-family="Virgil, Segoe UI Emoji" font-size="20px" fill="#1e1e1e" text-anchor="start" style="white-space: pre;" direction="ltr" dominant-baseline="text-before-edge">(2, 18928)</text></g><g transform="translate(790.9036712646484 147.95668507206483) rotate(0 20.29163360595703 13.177210801958836)"><text x="0" y="0" font-family="Virgil, Segoe UI Emoji" font-size="20.938698167987138px" fill="#000000" text-anchor="start" style="white-space: pre;" direction="ltr" dominant-baseline="text-before-edge">295</text></g><g transform="translate(1095.0083312988281 148.56239796268983) rotate(0 7.199913024902344 13.177210801958836)"><text x="0" y="0" font-family="Virgil, Segoe UI Emoji" font-size="20.938698167987138px" fill="#000000" text-anchor="start" style="white-space: pre;" direction="ltr" dominant-baseline="text-before-edge">0</text></g><g transform="translate(1052.4208145141602 148.23878956425233) rotate(0 2.8360137939453125 13.177210801958836)"><text x="0" y="0" font-family="Virgil, Segoe UI Emoji" font-size="20.938698167987138px" fill="#000000" text-anchor="start" style="white-space: pre;" direction="ltr" dominant-baseline="text-before-edge">1</text></g><g transform="translate(927.0452041625977 147.04628468143983) rotate(0 8.602226257324219 13.177210801958836)"><text x="0" y="0" font-family="Virgil, Segoe UI Emoji" font-size="20.938698167987138px" fill="#000000" text-anchor="start" style="white-space: pre;" direction="ltr" dominant-baseline="text-before-edge">...</text></g><g transform="translate(847.0437622070311 259.67812061893983) rotate(0 7.199913024902344 13.177210801958836)"><text x="0" y="0" font-family="Virgil, Segoe UI Emoji" font-size="20.938698167987138px" fill="#000000" text-anchor="start" style="white-space: pre;" direction="ltr" dominant-baseline="text-before-edge">0</text></g><g transform="translate(807.7341995239257 259.47560597050233) rotate(0 2.8360137939453125 13.177210801958836)"><text x="0" y="0" font-family="Virgil, Segoe UI Emoji" font-size="20.938698167987138px" fill="#000000" text-anchor="start" style="white-space: pre;" direction="ltr" dominant-baseline="text-before-edge">1</text></g><g transform="translate(763.4225540161132 259.4189043103461) rotate(0 7.451080322265625 13.177210801958836)"><text x="0" y="0" font-family="Virgil, Segoe UI Emoji" font-size="20.938698167987138px" fill="#000000" text-anchor="start" style="white-space: pre;" direction="ltr" dominant-baseline="text-before-edge">2</text></g><g transform="translate(720.1146087646484 259.6877031384711) rotate(0 7.1266632080078125 13.177210801958836)"><text x="0" y="0" font-family="Virgil, Segoe UI Emoji" font-size="20.938698167987138px" fill="#000000" text-anchor="start" style="white-space: pre;" direction="ltr" dominant-baseline="text-before-edge">3</text></g><g stroke-linecap="round"><g transform="translate(172.41506958007812 239.78792485964436) rotate(0 22.8125 -0.13242582832310745)"><path d="M0 0 C12.58 0.23, 25.27 -0.09, 45.63 -0.26 M0 0 C17.5 -0.35, 33.89 0.44, 45.63 -0.26" stroke="#1e1e1e" stroke-width="2" fill="none"></path></g><g transform="translate(172.41506958007812 239.78792485964436) rotate(0 22.8125 -0.13242582832310745)"><path d="M24.39 8.08 C30.17 5.95, 36.06 3.38, 45.63 -0.26 M24.39 8.08 C32.75 4.6, 39.97 2.35, 45.63 -0.26" stroke="#1e1e1e" stroke-width="2" fill="none"></path></g><g transform="translate(172.41506958007812 239.78792485964436) rotate(0 22.8125 -0.13242582832310745)"><path d="M24 -7.52 C29.86 -5.29, 35.85 -3.51, 45.63 -0.26 M24 -7.52 C32.45 -5.13, 39.82 -1.52, 45.63 -0.26" stroke="#1e1e1e" stroke-width="2" fill="none"></path></g></g><mask></mask><g stroke-linecap="round"><g transform="translate(171.08880615234375 294.04663031323116) rotate(0 20.882598876953125 0.30364907533453334)"><path d="M0 0 C9.9 0.12, 18.02 1.03, 41.77 0.61 M0 0 C14.93 0.63, 29.62 0.3, 41.77 0.61" stroke="#1e1e1e" stroke-width="2" fill="none"></path></g><g transform="translate(171.08880615234375 294.04663031323116) rotate(0 20.882598876953125 0.30364907533453334)"><path d="M22.05 7.5 C26.95 5.97, 30.06 5.17, 41.77 0.61 M22.05 7.5 C29.27 5.44, 36.25 2.49, 41.77 0.61" stroke="#1e1e1e" stroke-width="2" fill="none"></path></g><g transform="translate(171.08880615234375 294.04663031323116) rotate(0 20.882598876953125 0.30364907533453334)"><path d="M22.23 -6.79 C27.05 -5.07, 30.11 -2.61, 41.77 0.61 M22.23 -6.79 C29.38 -3.85, 36.29 -1.81, 41.77 0.61" stroke="#1e1e1e" stroke-width="2" fill="none"></path></g></g><mask></mask><g stroke-linecap="round"><g transform="translate(334.122802734375 231.47894104342618) rotate(0 60.70367431640628 -10.025337252721783)"><path d="M0 0 C48.24 -6.07, 93.89 -14.53, 121.41 -20.05 M0 0 C48.87 -8.8, 96.59 -15.7, 121.41 -20.05" stroke="#1e1e1e" stroke-width="2" fill="none"></path></g><g transform="translate(334.122802734375 231.47894104342618) rotate(0 60.70367431640628 -10.025337252721783)"><path d="M99.61 -7.81 C109.15 -11.66, 116.13 -17.08, 121.41 -20.05 M99.61 -7.81 C108.95 -13.31, 117.17 -17.12, 121.41 -20.05" stroke="#1e1e1e" stroke-width="2" fill="none"></path></g><g transform="translate(334.122802734375 231.47894104342618) rotate(0 60.70367431640628 -10.025337252721783)"><path d="M96.84 -24.68 C107.41 -21.96, 115.46 -20.83, 121.41 -20.05 M96.84 -24.68 C107.21 -23.5, 116.53 -20.61, 121.41 -20.05" stroke="#1e1e1e" stroke-width="2" fill="none"></path></g></g><mask></mask><g stroke-linecap="round"><g transform="translate(305.94581604003906 300.5196328659961) rotate(0 73.69745635986328 -0.5404452943407705)"><path d="M0 0 C35.23 -0.78, 68.45 -0.53, 147.39 -1.08 M0 0 C54.3 0.45, 107.43 0.16, 147.39 -1.08" stroke="#1e1e1e" stroke-width="2" fill="none"></path></g><g transform="translate(305.94581604003906 300.5196328659961) rotate(0 73.69745635986328 -0.5404452943407705)"><path d="M124.1 7.98 C130.22 6.23, 134.38 4.61, 147.39 -1.08 M124.1 7.98 C133.21 4.49, 141.22 1.29, 147.39 -1.08" stroke="#1e1e1e" stroke-width="2" fill="none"></path></g><g transform="translate(305.94581604003906 300.5196328659961) rotate(0 73.69745635986328 -0.5404452943407705)"><path d="M123.72 -9.11 C130.04 -6.87, 134.29 -4.49, 147.39 -1.08 M123.72 -9.11 C133.11 -6.39, 141.26 -3.37, 147.39 -1.08" stroke="#1e1e1e" stroke-width="2" fill="none"></path></g></g><mask></mask><g transform="translate(721.0324783325195 147.0540971814396) rotate(0 8.602226257324219 13.177210801958836)"><text x="0" y="0" font-family="Virgil, Segoe UI Emoji" font-size="20.938698167987138px" fill="#000000" text-anchor="start" style="white-space: pre;" direction="ltr" dominant-baseline="text-before-edge">...</text></g><g transform="translate(107.8358154296875 327.67613220214844) rotate(0 88.38997650146484 25)"><text x="0" y="0" font-family="Virgil, Segoe UI Emoji" font-size="20px" fill="#1e1e1e" text-anchor="start" style="white-space: pre;" direction="ltr" dominant-baseline="text-before-edge">x &gt;&gt;&gt; 16得到高16位</text><text x="0" y="25" font-family="Virgil, Segoe UI Emoji" font-size="20px" fill="#1e1e1e" text-anchor="start" style="white-space: pre;" direction="ltr" dominant-baseline="text-before-edge">(char) x得到低16位</text></g><g transform="translate(477.4725341796875 365.32481384277344) rotate(0 64.17996215820312 12.5)"><text x="0" y="0" font-family="Virgil, Segoe UI Emoji" font-size="20px" fill="#1e1e1e" text-anchor="start" style="white-space: pre;" direction="ltr" dominant-baseline="text-before-edge">高位container</text></g><g transform="translate(719.9511413574219 365.10716247558594) rotate(0 64.17996215820312 12.5)"><text x="0" y="0" font-family="Virgil, Segoe UI Emoji" font-size="20px" fill="#1e1e1e" text-anchor="start" style="white-space: pre;" direction="ltr" dominant-baseline="text-before-edge">低位container</text></g><g transform="translate(899.4538574218749 301.10386657714844) rotate(0 174.6298828125 12.5)"><text x="0" y="0" font-family="Virgil, Segoe UI Emoji" font-size="20px" fill="#1e1e1e" text-anchor="start" style="white-space: pre;" direction="ltr" dominant-baseline="text-before-edge">ArrayContainer的char[] content数组</text></g><g transform="translate(1149.4318161010742 189.4569549560547) rotate(0 172.2498779296875 12.5)"><text x="0" y="0" font-family="Virgil, Segoe UI Emoji" font-size="20px" fill="#1e1e1e" text-anchor="start" style="white-space: pre;" direction="ltr" dominant-baseline="text-before-edge">BitmapContainer的long[] bitmap数组</text></g><g stroke-linecap="round" transform="translate(789.5806539272561 180.5792694091797) rotate(0 20.69815466649385 21.96453857421875)"><path d="M-0.99 -0.05 L41.11 0.39 L40.53 44.77 L0.32 44.59" stroke="none" stroke-width="0" fill="#ffc9c9"></path><path d="M0 0 C10.44 0.48, 21.43 -0.78, 41.4 0 M0 0 C13.91 -0.07, 28.92 -0.43, 41.4 0 M41.4 0 C42.1 11.38, 40.87 22.78, 41.4 43.93 M41.4 0 C41.09 9.23, 41.11 18.38, 41.4 43.93 M41.4 43.93 C29.65 44.13, 17.23 43.41, 0 43.93 M41.4 43.93 C30.26 44.45, 19.02 43.67, 0 43.93 M0 43.93 C-0.76 34.72, 0.11 25.72, 0 0 M0 43.93 C0.08 33.31, -0.01 23.38, 0 0" stroke="#000000" stroke-width="4" fill="none"></path></g><g stroke-linecap="round" transform="translate(709.2261962890625 81.33137512207031) rotate(0 43.36798095703125 17.5)"><path d="M-1.23 -1.2 L87.22 -1.17 L86.82 34.69 L-1.61 36.89" stroke="none" stroke-width="0" fill="#ffc9c9"></path><path d="M0 0 C19.99 -2.25, 40.99 -2.01, 86.74 0 M0 0 C26.37 -0.81, 51.65 0.02, 86.74 0 M86.74 0 C85.34 12.49, 88.48 20.03, 86.74 35 M86.74 0 C86.28 8.2, 86.45 15.05, 86.74 35 M86.74 35 C51.71 33.31, 18.69 33.37, 0 35 M86.74 35 C57.41 34.86, 28.14 34.95, 0 35 M0 35 C-1.82 24.61, 1.26 17.1, 0 0 M0 35 C0.05 22.92, -0.44 10.85, 0 0" stroke="#1e1e1e" stroke-width="2" fill="none"></path></g><g transform="translate(725.9841995239258 86.33137512207031) rotate(0 26.60997772216797 12.5)"><text x="26.60997772216797" y="0" font-family="Virgil, Segoe UI Emoji" font-size="20px" fill="#1e1e1e" text-anchor="middle" style="white-space: pre;" direction="ltr" dominant-baseline="text-before-edge">2^48</text></g><g stroke-linecap="round"><g transform="translate(814.1788330078125 206.79380798339844) rotate(0 -28.83604947951403 -44.55888366699219)"><path d="M0 0 C-15.01 -23.42, -29.78 -43.16, -57.67 -89.12 M0 0 C-23.15 -34.99, -44.5 -70.78, -57.67 -89.12" stroke="#1e1e1e" stroke-width="2" fill="none"></path></g><g transform="translate(814.1788330078125 206.79380798339844) rotate(0 -28.83604947951403 -44.55888366699219)"><path d="M-37.49 -74.36 C-43.01 -79.25, -48.61 -80.8, -57.67 -89.12 M-37.49 -74.36 C-46.08 -79.61, -52.61 -86.02, -57.67 -89.12" stroke="#1e1e1e" stroke-width="2" fill="none"></path></g><g transform="translate(814.1788330078125 206.79380798339844) rotate(0 -28.83604947951403 -44.55888366699219)"><path d="M-51.69 -64.84 C-53.78 -71.92, -55.91 -75.8, -57.67 -89.12 M-51.69 -64.84 C-54.64 -73.71, -55.56 -83.88, -57.67 -89.12" stroke="#1e1e1e" stroke-width="2" fill="none"></path></g></g><mask></mask><g transform="translate(10 176.92015075683594) rotate(0 79.91995239257812 12.5)"><text x="0" y="0" font-family="Virgil, Segoe UI Emoji" font-size="20px" fill="#1e1e1e" text-anchor="start" style="white-space: pre;" direction="ltr" dominant-baseline="text-before-edge">140000~144096</text></g><g transform="translate(216.9761962890625 177.11253356933594) rotate(0 94.4699478149414 12.5)"><text x="0" y="0" font-family="Virgil, Segoe UI Emoji" font-size="20px" fill="#1e1e1e" text-anchor="start" style="white-space: pre;" direction="ltr" dominant-baseline="text-before-edge">(2, 8928~13023) </text></g><g stroke-linecap="round"><g transform="translate(174.6068115234375 187.5737762451172) rotate(0 19.668975830078125 -1.59967041015625)"><path d="M0 0 C15.35 -0.58, 31.78 -1.56, 39.34 -3.2 M0 0 C15.74 -1.37, 31.2 -1.97, 39.34 -3.2" stroke="#1e1e1e" stroke-width="2" fill="none"></path></g><g transform="translate(174.6068115234375 187.5737762451172) rotate(0 19.668975830078125 -1.59967041015625)"><path d="M21.62 5.49 C28.47 2.72, 36.37 -0.42, 39.34 -3.2 M21.62 5.49 C28.83 1.87, 35.75 -0.91, 39.34 -3.2" stroke="#1e1e1e" stroke-width="2" fill="none"></path></g><g transform="translate(174.6068115234375 187.5737762451172) rotate(0 19.668975830078125 -1.59967041015625)"><path d="M20.18 -7.94 C27.55 -5.41, 36.01 -3.27, 39.34 -3.2 M20.18 -7.94 C27.9 -6.24, 35.39 -3.71, 39.34 -3.2" stroke="#1e1e1e" stroke-width="2" fill="none"></path></g></g><mask></mask><g stroke-linecap="round"><g transform="translate(408.072998046875 197.7295343657281) rotate(0 23.451263427734375 8.438284744343832)"><path d="M0 0 C13.11 4.79, 27 9.98, 46.9 16.88 M0 0 C15.53 5.7, 31.81 11.44, 46.9 16.88" stroke="#1e1e1e" stroke-width="2" fill="none"></path></g><g transform="translate(408.072998046875 197.7295343657281) rotate(0 23.451263427734375 8.438284744343832)"><path d="M21.98 17 C29 16.95, 36.73 17.38, 46.9 16.88 M21.98 17 C30.23 16.97, 39.16 17.02, 46.9 16.88" stroke="#1e1e1e" stroke-width="2" fill="none"></path></g><g transform="translate(408.072998046875 197.7295343657281) rotate(0 23.451263427734375 8.438284744343832)"><path d="M27.73 0.95 C33.07 5.39, 39.19 10.31, 46.9 16.88 M27.73 0.95 C33.99 6.28, 40.98 11.71, 46.9 16.88" stroke="#1e1e1e" stroke-width="2" fill="none"></path></g></g><mask></mask><g transform="translate(898.3255615234374 344.4415740966797) rotate(0 197.88992309570312 25)"><text x="0" y="0" font-family="Virgil, Segoe UI Emoji" font-size="20px" fill="#1e1e1e" text-anchor="start" style="white-space: pre;" direction="ltr" dominant-baseline="text-before-edge">当ArrayContainer中的元素数量达到4096时</text><text x="0" y="25" font-family="Virgil, Segoe UI Emoji" font-size="20px" fill="#1e1e1e" text-anchor="start" style="white-space: pre;" direction="ltr" dominant-baseline="text-before-edge">转换为BitmapContainer存储</text></g><g stroke-linecap="round" transform="translate(855.9047241210938 82.00859069824219) rotate(0 78.83654785156244 17.5)"><path d="M0 0 C51.42 -1.99, 101.1 -0.83, 157.67 0 M0 0 C52.28 -0.76, 102.68 -0.56, 157.67 0 M157.67 0 C156.82 10.01, 157.14 18.8, 157.67 35 M157.67 0 C157.9 12.26, 158.5 25.23, 157.67 35 M157.67 35 C117.15 34.4, 73.64 35.77, 0 35 M157.67 35 C112.63 33.48, 67.81 34.65, 0 35 M0 35 C0.15 21.33, -1.69 9.69, 0 0 M0 35 C0.2 23.86, 0.51 12.44, 0 0" stroke="#1e1e1e" stroke-width="2" fill="none"></path></g><g transform="translate(887.4213027954102 87.00859069824219) rotate(0 47.319969177246094 12.5)"><text x="47.319969177246094" y="0" font-family="Virgil, Segoe UI Emoji" font-size="20px" fill="#1e1e1e" text-anchor="middle" style="white-space: pre;" direction="ltr" dominant-baseline="text-before-edge">18928&gt;&gt;6</text></g><g stroke-linecap="round"><g transform="translate(919.2447185647076 122.11177062988281) rotate(0 -42.02378750500998 13.827299872851313)"><path d="M0 0 C-32.53 10.23, -63.56 20.86, -84.05 27.65 M0 0 C-30.82 10.39, -63.26 20.86, -84.05 27.65" stroke="#1e1e1e" stroke-width="2" fill="none"></path></g><g transform="translate(919.2447185647076 122.11177062988281) rotate(0 -42.02378750500998 13.827299872851313)"><path d="M-64.36 12.25 C-72.44 17.33, -79.09 23.32, -84.05 27.65 M-64.36 12.25 C-71.13 17.85, -79.6 23.76, -84.05 27.65" stroke="#1e1e1e" stroke-width="2" fill="none"></path></g><g transform="translate(919.2447185647076 122.11177062988281) rotate(0 -42.02378750500998 13.827299872851313)"><path d="M-59.06 28.5 C-69.05 27.47, -77.71 27.3, -84.05 27.65 M-59.06 28.5 C-67.68 28.08, -78.12 27.93, -84.05 27.65" stroke="#1e1e1e" stroke-width="2" fill="none"></path></g></g><mask></mask><g stroke-linecap="round" transform="translate(856.1660156250002 22.123977661132812) rotate(0 78.83654785156244 17.5)"><path d="M0 0 C55.7 1.44, 109.05 -1.64, 157.67 0 M0 0 C58.89 -1.1, 118.79 0.44, 157.67 0 M157.67 0 C157.43 14.63, 158.58 26.82, 157.67 35 M157.67 0 C156.96 7.79, 158.78 14.17, 157.67 35 M157.67 35 C105.59 36.79, 58.71 36.51, 0 35 M157.67 35 C120.31 36.1, 84.18 35.36, 0 35 M0 35 C-0.2 20.51, 1.87 10.25, 0 0 M0 35 C-0.97 21.37, -0.6 8.23, 0 0" stroke="#1e1e1e" stroke-width="2" fill="none"></path></g><g transform="translate(888.972595214844 27.123977661132812) rotate(0 46.02996826171875 12.5)"><text x="46.02996826171875" y="0" font-family="Virgil, Segoe UI Emoji" font-size="20px" fill="#1e1e1e" text-anchor="middle" style="white-space: pre;" direction="ltr" dominant-baseline="text-before-edge">1&lt;&lt;18928</text></g><g stroke-linecap="round"><g transform="translate(854.7732543945312 47.33995056152344) rotate(0 -28.569244384765625 19.498306274414062)"><path d="M0 0 C-13.16 8.54, -22.27 14.66, -57.14 39 M0 0 C-18.05 10.78, -35.27 23.17, -57.14 39" stroke="#1e1e1e" stroke-width="2" fill="none"></path></g><g transform="translate(854.7732543945312 47.33995056152344) rotate(0 -28.569244384765625 19.498306274414062)"><path d="M-43.06 18.34 C-47.5 22.99, -47.82 25.38, -57.14 39 M-43.06 18.34 C-47.74 23.71, -51.49 30.37, -57.14 39" stroke="#1e1e1e" stroke-width="2" fill="none"></path></g><g transform="translate(854.7732543945312 47.33995056152344) rotate(0 -28.569244384765625 19.498306274414062)"><path d="M-33.08 32.22 C-39.6 34.07, -41.96 33.62, -57.14 39 M-33.08 32.22 C-40.95 33.18, -47.82 35.49, -57.14 39" stroke="#1e1e1e" stroke-width="2" fill="none"></path></g></g><mask></mask><g transform="translate(1210.6364936828613 47.68890380859375) rotate(0 36.40998077392578 12.5)"><text x="0" y="0" font-family="Virgil, Segoe UI Emoji" font-size="20px" fill="#1e1e1e" text-anchor="start" style="white-space: pre;" direction="ltr" dominant-baseline="text-before-edge">150000</text></g><g transform="translate(1082.2290229797363 46.0411376953125) rotate(0 31.21997833251953 12.5)"><text x="0" y="0" font-family="Virgil, Segoe UI Emoji" font-size="20px" fill="#1e1e1e" text-anchor="start" style="white-space: pre;" direction="ltr" dominant-baseline="text-before-edge">18928</text></g><g stroke-linecap="round"><g transform="translate(1205.1386375427246 58.737060546875) rotate(0 -27.87939453125 -0.11224365234375)"><path d="M0 0 C-17.01 1.43, -31.79 -0.84, -55.76 -0.22 M0 0 C-18.02 -0.31, -37.05 0.93, -55.76 -0.22" stroke="#1e1e1e" stroke-width="2" fill="none"></path></g><g transform="translate(1205.1386375427246 58.737060546875) rotate(0 -27.87939453125 -0.11224365234375)"><path d="M-32.03 -8.08 C-40.25 -4.34, -46.28 -4.39, -55.76 -0.22 M-32.03 -8.08 C-39.38 -5.88, -47.8 -1.96, -55.76 -0.22" stroke="#1e1e1e" stroke-width="2" fill="none"></path></g><g transform="translate(1205.1386375427246 58.737060546875) rotate(0 -27.87939453125 -0.11224365234375)"><path d="M-32.53 9.01 C-40.68 8.08, -46.57 3.36, -55.76 -0.22 M-32.53 9.01 C-39.84 5.55, -48.09 3.8, -55.76 -0.22" stroke="#1e1e1e" stroke-width="2" fill="none"></path></g></g><mask></mask><g stroke-linecap="round"><g transform="translate(1081.5321922302246 61.143463134765625) rotate(0 -30.45977783203125 -9.799530029296875)"><path d="M0 0 C-20.09 -6.01, -39.43 -13.33, -60.92 -19.6 M0 0 C-16.78 -5.57, -34.43 -11.72, -60.92 -19.6" stroke="#1e1e1e" stroke-width="2" fill="none"></path></g><g transform="translate(1081.5321922302246 61.143463134765625) rotate(0 -30.45977783203125 -9.799530029296875)"><path d="M-35.95 -20.87 C-44.04 -19.77, -51.44 -20.16, -60.92 -19.6 M-35.95 -20.87 C-42.37 -20.57, -49.71 -20.72, -60.92 -19.6" stroke="#1e1e1e" stroke-width="2" fill="none"></path></g><g transform="translate(1081.5321922302246 61.143463134765625) rotate(0 -30.45977783203125 -9.799530029296875)"><path d="M-40.97 -4.53 C-47.45 -8.82, -53.19 -14.64, -60.92 -19.6 M-40.97 -4.53 C-45.98 -8.92, -51.88 -13.77, -60.92 -19.6" stroke="#1e1e1e" stroke-width="2" fill="none"></path></g></g><mask></mask><g stroke-linecap="round"><g transform="translate(1079.5133934020996 63.815673828125) rotate(0 -30.10626220703125 16.561874389648438)"><path d="M0 0 C-13.93 7.99, -25.64 13.13, -60.21 33.12 M0 0 C-12.79 8.15, -25.65 14.21, -60.21 33.12" stroke="#1e1e1e" stroke-width="2" fill="none"></path></g><g transform="translate(1079.5133934020996 63.815673828125) rotate(0 -30.10626220703125 16.561874389648438)"><path d="M-43.61 14.43 C-47.88 19.57, -50.03 21.53, -60.21 33.12 M-43.61 14.43 C-47.4 19.33, -51.12 22.36, -60.21 33.12" stroke="#1e1e1e" stroke-width="2" fill="none"></path></g><g transform="translate(1079.5133934020996 63.815673828125) rotate(0 -30.10626220703125 16.561874389648438)"><path d="M-35.48 29.48 C-41.43 31.26, -45.37 29.92, -60.21 33.12 M-35.48 29.48 C-41.1 31.27, -46.53 31.15, -60.21 33.12" stroke="#1e1e1e" stroke-width="2" fill="none"></path></g></g><mask></mask><g transform="translate(1139.0434226989746 10) rotate(0 39.10999298095703 12.5)"><text x="0" y="0" font-family="Virgil, Segoe UI Emoji" font-size="20px" fill="#1e1e1e" text-anchor="start" style="white-space: pre;" direction="ltr" dominant-baseline="text-before-edge">取低16位</text></g></svg>